<?xml version="1.0" encoding="UTF-8" standalone="no"?>
<!-- Created with Inkscape (http://www.inkscape.org/) -->

<svg
   width="100mm"
   height="100mm"
   viewBox="0 0 100 100"
   version="1.1"
   id="svg1"
   sodipodi:docname="logo.svg"
   inkscape:version="1.3.2 (091e20e, 2023-11-25, custom)"
   xmlns:inkscape="http://www.inkscape.org/namespaces/inkscape"
   xmlns:sodipodi="http://sodipodi.sourceforge.net/DTD/sodipodi-0.dtd"
   xmlns="http://www.w3.org/2000/svg"
   xmlns:svg="http://www.w3.org/2000/svg">
  <sodipodi:namedview
     id="namedview1"
     pagecolor="#ffffff"
     bordercolor="#000000"
     borderopacity="0.25"
     inkscape:showpageshadow="2"
     inkscape:pageopacity="0.0"
     inkscape:pagecheckerboard="false"
     inkscape:deskcolor="#d1d1d1"
     inkscape:document-units="mm"
     inkscape:zoom="1.4142136"
     inkscape:cx="179.95868"
     inkscape:cy="211.42493"
     inkscape:window-width="2256"
     inkscape:window-height="1410"
     inkscape:window-x="-11"
     inkscape:window-y="-11"
     inkscape:window-maximized="1"
     inkscape:current-layer="layer2" />
  <defs
     id="defs1">
    <inkscape:path-effect
       effect="bspline"
       id="path-effect6"
       is_visible="true"
       lpeversion="1.3"
       weight="33.333333"
       steps="2"
       helper_size="0"
       apply_no_weight="true"
       apply_with_weight="true"
       only_selected="false"
       uniform="false" />
    <inkscape:path-effect
       effect="bspline"
       id="path-effect5"
       is_visible="true"
       lpeversion="1.3"
       weight="33.333333"
       steps="2"
       helper_size="0"
       apply_no_weight="true"
       apply_with_weight="true"
       only_selected="false"
       uniform="false" />
    <inkscape:path-effect
       effect="bspline"
       id="path-effect4"
       is_visible="true"
       lpeversion="1.3"
       weight="33.333333"
       steps="2"
       helper_size="0"
       apply_no_weight="true"
       apply_with_weight="true"
       only_selected="false"
       uniform="false" />
    <inkscape:path-effect
       effect="bspline"
       id="path-effect3"
       is_visible="true"
       lpeversion="1.3"
       weight="33.333333"
       steps="2"
       helper_size="0"
       apply_no_weight="true"
       apply_with_weight="true"
       only_selected="false"
       uniform="false" />
    <inkscape:path-effect
       effect="bspline"
       id="path-effect2"
       is_visible="true"
       lpeversion="1.3"
       weight="33.333333"
       steps="2"
       helper_size="0"
       apply_no_weight="true"
       apply_with_weight="true"
       only_selected="false"
       uniform="false" />
    <clipPath
       clipPathUnits="userSpaceOnUse"
       id="clipPath303">
      <path
         id="path304"
         style="fill:#ff0000;fill-opacity:1;fill-rule:nonzero;stroke:none;stroke-width:0.264583"
         d="m 24.793835,26.471253 v 4.77335 c 0.127897,-0.389871 0.256385,-0.7797 0.378272,-1.171503 0.100344,-0.332343 0.196362,-0.663488 0.275952,-1.00149 0.01733,-0.07359 0.03414,-0.147582 0.04909,-0.221692 0.01242,-0.06158 0.01098,-0.126519 0.03256,-0.185518 0.0087,-0.02384 0.0052,0.05073 0.0078,0.07597 0.214201,2.112594 1.267959,1.306094 2.321824,0.269234 -0.79239,-0.597339 -1.078561,-1.554078 -0.122989,-2.538346 z m 12.564091,0 c 0.03097,0.0067 0.06207,0.01291 0.09302,0.01963 0.164814,0.0344 0.330779,0.0647 0.495577,0.09922 0.145214,0.02926 0.290698,0.05792 0.436666,0.0832 0.122055,0.01818 0.24347,0.03967 0.364321,0.0646 0.08511,0.01651 0.167111,0.04383 0.248563,0.07286 0.06118,0.02418 0.121375,0.04997 0.181385,0.077 0.06258,0.03276 0.128341,0.05881 0.191201,0.09095 0.336754,0.17218 0.108424,0.303485 -0.156062,0.413927 0.02233,0.01262 0.04202,0.02885 0.06304,0.04341 0.03564,0.02556 0.07075,0.05196 0.107487,0.07597 0.01633,0.01151 0.03445,0.01812 0.05374,0.02222 0.01897,0.0037 0.03861,0.0049 0.05788,0.0057 0.0468,0.0016 0.09198,0.01238 0.135911,0.02791 0.02959,0.01072 0.05818,0.02424 0.08578,0.03927 0.01447,0.0065 0.02694,0.01643 0.04031,0.02479 0.0027,7.94e-4 0.0052,0.0019 0.0078,0.0031 0.0241,0.0094 0.04765,0.01942 0.0708,0.031 0.02019,0.009 0.04096,0.01712 0.0615,0.02532 0.02566,0.0096 0.05033,0.02114 0.07545,0.03204 0.01352,0.0044 0.02577,0.01191 0.03824,0.0186 0.107542,0.05741 0.02199,0.08848 -0.06305,0.11679 0.0062,0.0057 0.01241,0.0114 0.0186,0.01706 0.0097,0.0088 0.01905,0.01781 0.02946,0.02585 0.0066,0.0051 0.01368,0.0089 0.02119,0.01241 0.0092,0.0037 0.01818,0.0077 0.02687,0.01241 0.0019,0.0011 0.0034,0.0021 0.0052,0.0031 0.0034,0.0011 0.007,0.0013 0.01035,0.0026 0.0072,0.0029 0.01397,0.0063 0.02066,0.01035 0.0036,0.0021 0.0071,0.0041 0.01085,0.0062 0.0043,0.0024 0.0086,0.0052 0.01291,0.0078 0.0054,0.0032 0.01103,0.0063 0.01654,0.0093 0.0052,0.0029 0.0104,0.0056 0.01551,0.0088 0.0058,0.0033 0.01037,0.0078 0.01497,0.01241 0.0032,0.0036 0.007,0.0078 0.01035,0.01188 0.0013,-0.0013 0.0024,-0.0024 0.0036,-0.0036 5.29e-4,-5.29e-4 0.0016,-0.0019 0.0021,-0.0021 2.64e-4,-7.4e-5 -5.29e-4,0.0019 0,0.0011 2.51e-4,-5.29e-4 2.64e-4,-5.29e-4 5.29e-4,-0.0011 0.0013,-0.0056 0.0021,-0.01135 0.0026,-0.01706 0.0016,-0.02151 0.01206,-0.03326 0.02273,-0.03462 0.01209,-0.0016 0.02447,0.01019 0.02379,0.03462 -2.64e-4,0.0093 -0.0021,0.01828 -0.0041,0.02739 -0.0021,0.0097 -0.0077,0.01781 -0.01447,0.02479 -0.0021,0.0019 -0.0044,0.0036 -0.0062,0.0057 -0.0016,0.0021 -0.0034,0.0043 -0.0052,0.0062 -0.0041,0.0044 -0.0096,0.0065 -0.01498,0.0088 v 5.29e-4 c -0.003,0.0052 -0.0071,0.0091 -0.01188,0.01241 -7.93e-4,5.29e-4 -0.0019,0.0011 -0.0026,0.0016 -0.01254,0.0075 -0.0164,0.003 -0.01654,-0.0057 -7.94e-4,5.29e-4 -7.94e-4,5.29e-4 -0.0026,0.0021 -0.0021,0.0011 -0.0044,0.0024 -0.0067,0.0031 -0.0093,0.0032 -0.02048,0.0019 -0.02997,5.29e-4 -0.0082,-0.0019 -0.01955,-0.0035 -0.02635,-0.0088 -0.0024,-0.0019 -0.0041,-0.0041 -0.0062,-0.0062 -0.0013,-0.0021 -0.003,-0.0044 -0.0041,-0.0067 -7.94e-4,-0.0019 -0.0016,-0.0037 -0.0021,-0.0062 -0.0026,-0.0011 -0.0052,-0.0019 -0.0078,-0.0031 -0.0036,-0.0021 -0.0066,-0.0061 -0.0098,-0.0088 -0.0026,-0.0021 -0.0047,-0.0044 -0.0072,-0.0067 -0.0031,-0.0029 -0.0049,-0.0065 -0.0067,-0.01034 -5.3e-4,-0.0011 -5.3e-4,-0.0016 -5.3e-4,-0.0011 1.06e-4,2.6e-4 2.65e-4,0.0011 0,0.0011 l -5.29e-4,-5.3e-4 -0.0016,-0.0016 c -0.0024,-0.0021 -0.0051,-0.0043 -0.0078,-0.0062 -0.0042,-0.0028 -0.0084,-0.0049 -0.01344,-0.0062 -0.01037,-0.0026 -0.02069,-0.0054 -0.03101,-0.0083 -0.0096,-0.0024 -0.01902,-0.0057 -0.02842,-0.0088 -0.0108,-0.0033 -0.02138,-0.008 -0.03152,-0.01291 -0.0096,-0.0048 -0.01849,-0.01045 -0.02739,-0.01654 -0.0052,-0.0032 -0.01011,-0.0067 -0.01497,-0.01035 -0.0061,-0.0047 -0.01241,-0.0088 -0.0186,-0.01344 -0.0052,-0.004 -0.01032,-0.0082 -0.0155,-0.01241 -0.0074,0.01093 -0.0058,0.0227 0.02222,0.03669 -0.01908,-0.0086 -0.03772,-0.01765 -0.05736,-0.02479 -0.02679,-0.01077 -0.054,-0.02125 -0.0801,-0.03359 -0.02135,-0.01072 -0.04373,-0.01881 -0.06563,-0.02842 -0.02196,-0.01042 -0.04269,-0.02299 -0.06201,-0.03462 -0.0163,-0.0092 -0.0336,-0.0173 -0.05116,-0.02376 -0.01982,-0.0078 -0.04066,-0.01257 -0.06201,-0.01344 -0.03485,-0.0016 -0.06976,-0.0041 -0.10387,-0.01188 -0.04712,-0.01156 -0.09187,-0.02897 -0.132292,-0.05633 -0.03904,-0.02572 -0.07684,-0.05322 -0.114723,-0.08061 -0.01966,-0.01405 -0.03815,-0.02913 -0.05943,-0.04083 -0.01625,-0.01103 -0.03295,-0.02114 -0.04857,-0.03307 -0.01257,-0.0068 -0.02537,-0.01349 -0.03773,-0.02066 -0.0042,-0.0024 -0.0089,-0.004 -0.01241,-0.0072 -5.29e-4,-5.3e-4 0.0019,5.29e-4 0.0026,5.29e-4 0.08749,0.01114 0.09208,-0.02766 0.07338,-0.07751 -0.144626,0.05713 -0.269994,0.109967 -0.270785,0.156578 0.01934,0.0084 0.03869,0.01632 0.05788,0.02479 0.04133,0.0232 0.08526,0.04115 0.128675,0.05995 0.01876,0.0081 0.02103,0.0084 0.01241,0.0067 -0.144177,-0.0292 -0.199499,-0.05936 -0.198954,-0.09147 -0.02061,-0.0089 -0.0409,-0.01815 -0.06149,-0.02687 -0.04567,-0.01632 -0.09085,-0.03366 -0.13901,-0.04186 -0.112006,-0.02352 -0.224837,-0.04271 -0.337965,-0.05994 -0.155173,-0.02716 -0.309682,-0.05699 -0.464053,-0.08837 -0.166722,-0.03493 -0.334592,-0.06514 -0.501261,-0.100253 -0.121645,-0.02641 -0.242848,-0.05599 -0.366903,-0.06873 -0.101563,-0.0087 -0.203142,-0.0074 -0.304893,-0.0016 -0.2331,0.0089 -0.46641,0.01855 -0.699698,0.02326 -0.371533,0.0048 -0.742897,0.0056 -1.114142,-0.01085 -0.39769,-0.01572 -0.796012,-0.03109 -1.192178,-0.0708 -0.279649,-0.03025 -0.558861,-0.06452 -0.837674,-0.101803 -0.01146,0.04593 -0.02135,0.08249 -0.06408,0.247531 -0.221964,0.857533 -0.658974,1.441807 -1.194758,1.808157 0.253603,0.255897 0.425834,0.716264 0.420645,1.392679 -0.0044,0.572868 -0.04274,1.145146 -0.02222,1.718244 0.01524,0.42064 0.03564,0.544915 0.0801,0.962731 0.02042,0.160973 0.04414,0.321292 0.06873,0.481624 0.152946,-0.0044 0.282665,-0.08031 0.283703,-0.354499 2e-6,-7.94e-4 -5.3e-4,-0.0026 0,-0.0021 0.0186,0.01482 0.03467,0.03247 0.05168,0.04909 0.03603,0.03521 0.05487,0.05315 0.08992,0.09663 0.02141,0.02657 0.04071,0.05473 0.06098,0.08217 0.0829,0.123936 0.155482,0.254248 0.234092,0.380854 0.06767,0.115128 0.153295,0.217083 0.240813,0.317294 0.107411,0.121118 0.21689,0.23995 0.329695,0.356052 0.144677,0.139004 0.29699,0.270243 0.445453,0.405143 0.119766,0.110604 0.242263,0.217731 0.361733,0.328661 0.102211,0.09469 0.204769,0.189362 0.303858,0.287321 0.09836,0.10821 0.208468,0.202885 0.321945,0.294556 0.119126,0.09329 0.239948,0.184573 0.364318,0.270785 0.06316,0.04051 0.12846,0.07758 0.19482,0.112654 0.07414,0.03282 0.142492,0.07665 0.210839,0.119888 0.08447,0.05854 0.172434,0.12096 0.232545,0.20619 0.01648,0.02336 0.02962,0.04847 0.04444,0.07286 0.0013,0.0011 0.0024,0.0016 0.0036,0.0026 2.64e-4,0.0011 7.93e-4,0.0021 0.0011,0.0031 0.0019,0.0054 0.0044,0.01048 0.0072,0.0155 0.0034,0.0061 0.0082,0.01132 0.01291,0.01654 0.0064,0.0069 0.01252,0.014 0.0186,0.02119 0.0016,0.0019 0.0035,0.0033 0.0052,0.0052 0.0011,-0.0042 0.0036,-0.0067 0.0067,-0.0072 7.94e-4,-1.27e-4 0.0013,0.0019 0.0021,0.0021 0.0013,-0.0026 0.0034,-0.0042 0.0057,-0.0047 0.0051,-0.0011 0.01106,0.0034 0.01291,0.01344 7.93e-4,0.0043 0.0013,0.0085 0.0016,0.01291 2.46e-4,0.0035 5.29e-4,0.0074 5.29e-4,0.01085 6.4e-5,0.0028 -1.3e-5,0.0051 0,0.0078 1.1e-5,0.0024 -2e-6,0.0053 0,0.0078 v 0.0021 c 0,0.0019 -9e-5,0.0035 -5.29e-4,0.0052 v 5.3e-4 c 5.29e-4,0.0021 0.0011,0.0041 0.0016,0.0062 7.93e-4,0.003 0.0019,0.0063 0.0021,0.0093 1.27e-4,0.0024 -2.9e-5,0.0043 0,0.0067 8e-6,0.0019 -2.17e-4,0.0043 0,0.0062 l 5.3e-4,5.29e-4 c 2.64e-4,9e-5 0.0024,5.29e-4 0.0026,5.29e-4 0.0052,0.0011 0.0105,0.0021 0.0155,0.0041 0.0062,0.0021 0.0127,0.0042 0.0186,0.0072 0.0058,0.0031 0.01098,0.0063 0.01654,0.0098 0.0046,0.0027 0.0092,0.0052 0.01394,0.0078 0.0065,0.0034 0.0085,0.0078 0.0088,0.01188 v 5.29e-4 c 0.0028,0.0016 0.0062,0.0031 0.0093,0.0041 0.0195,0.0062 0.01016,0.02553 -0.0093,0.01913 -0.0029,-0.0011 -0.0061,-0.0026 -0.0088,-0.0041 5.29e-4,0.0013 0.0026,0.0016 0.0031,0.0031 5.29e-4,0.0024 0.0021,0.0011 0.0031,0.0041 5.3e-4,0.0028 0.0019,0.0055 0.0021,0.0083 7.94e-4,0.0046 0.0016,0.0093 0.0016,0.01394 4.5e-5,0.0027 7.4e-5,0.0056 5.29e-4,0.0083 2.27e-4,0.0024 0.0011,0.0047 0.0016,0.0072 0.0016,0.0063 0.0028,0.0122 0.0036,0.0186 7.94e-4,0.0066 0.0016,0.01355 0.0021,0.02016 5.29e-4,0.0047 5.29e-4,0.0094 0.0021,0.01394 0.0011,0.0024 0.0024,0.0048 0.0036,0.0072 2.62e-4,5.29e-4 0.0013,0.0011 0.0016,0.0016 2.38e-4,2.54e-4 0.0016,0.0016 0.0011,0.0016 -5.29e-4,-1.06e-4 -0.0016,-0.0011 -0.0021,-0.0016 -0.01871,-0.01595 -0.01879,7.94e-4 -0.01807,0.0186 0.0026,0.0054 0.0052,0.01077 0.0072,0.01654 0.0038,0.01193 0.0052,0.0217 0.0016,0.03411 -1.27e-4,5.29e-4 -6.4e-5,0.0011 -5.29e-4,0.0016 0.005,0.0043 0.01027,0.0085 0.0155,0.01241 0.0013,0.0011 0.0027,0.0021 0.0041,0.0031 5.29e-4,2.62e-4 0.0011,0.0011 0.0016,0.0016 -0.04541,0.0071 0.02066,0.0558 -5.29e-4,0.05323 2.62e-4,5.29e-4 0.0019,0.0026 0.0021,0.0031 0.003,0.0051 0.006,0.0097 0.0093,0.01447 7.94e-4,0.0013 0.0021,0.0019 0.0031,0.0031 2.62e-4,5.3e-4 0.0013,0.0026 0.0016,0.0031 -0.0011,2.65e-4 -0.0021,0.0021 -0.0031,0.0026 0.09022,0.05028 0.171524,0.15702 0.208772,0.332796 0.01304,0.06159 0.02933,0.122523 0.04702,0.182935 0.01307,0.04484 0.02453,0.09041 0.04341,0.133324 0.01704,0.04846 0.03262,0.09745 0.04857,0.146245 0.02933,0.09157 0.05564,0.184193 0.08268,0.276469 0.03768,0.139938 0.07371,0.280395 0.112138,0.420129 0.03677,0.123301 0.07847,0.244591 0.119888,0.366384 0.0412,0.135361 0.07722,0.27232 0.112654,0.409279 0.04179,0.161253 0.08497,0.321855 0.14056,0.479041 0.07624,0.213781 0.161229,0.425773 0.276987,0.621668 0.01971,0.03152 0.03906,0.06348 0.05943,0.09457 0.04063,0.06199 0.08457,0.120643 0.129707,0.179317 0.0069,0.0089 0.01,0.0069 0.0057,0.0093 -0.06449,0.03477 -0.109415,0.07394 -0.139528,0.115239 0.29867,-0.109352 0.591611,-0.23355 0.889868,-0.344167 0.380939,-0.14732 0.770319,-0.268539 1.171506,-0.347266 0.125053,-0.02453 0.251537,-0.04205 0.377238,-0.06305 0.600226,-0.08752 1.205973,-0.127254 1.811258,-0.159162 0.449408,-0.01775 0.899398,-0.0081 1.34824,0.01704 0.33242,0.01958 0.661927,0.06785 0.984435,0.147277 0.01969,-0.121711 0.04048,-0.243086 0.06046,-0.364834 0.0235,-0.147899 0.04359,-0.296457 0.06666,-0.444418 0.0209,-0.144764 0.04797,-0.288298 0.08217,-0.430463 0.02706,-0.115309 0.05825,-0.229683 0.09043,-0.343649 0.02275,-0.0849 0.04875,-0.168566 0.07235,-0.253214 0.01487,-0.05798 0.02964,-0.116155 0.04444,-0.174149 0.01024,-0.04519 0.02331,-0.08967 0.03721,-0.133842 0.01696,-0.05966 0.0384,-0.117825 0.06201,-0.175184 0.02646,-0.06278 0.0518,-0.125629 0.07648,-0.189137 0.0052,-0.02334 0.02212,-0.04767 0.0217,-0.07235 0.0068,-0.0589 0.01651,-0.117075 0.02532,-0.175699 0.0089,-0.05916 0.01598,-0.118697 0.02119,-0.178284 5.3e-4,-0.0062 0.0016,-0.01241 0.0021,-0.0186 0.0154,-0.203631 0.09831,-0.32969 0.196887,-0.382405 1.9e-5,-0.01177 7.94e-4,-0.02408 0.0021,-0.03721 0.0016,-0.01685 0.0049,-0.03494 0.0067,-0.05219 0.0021,-0.02043 0.0026,-0.04097 0.0031,-0.0615 -2.01e-4,-0.02011 0.0039,-0.03951 0.0062,-0.05943 7.94e-4,-0.0048 0.0016,-0.0097 0.0026,-0.01447 0.0073,-0.03976 0.03172,-0.05768 0.05943,-0.0677 -0.0077,-0.0024 -0.0066,-0.0096 -5.29e-4,-0.01497 -0.0093,-0.0053 -0.0092,-0.02016 0.0083,-0.02946 0.0019,-0.0011 0.0041,-0.0019 0.0057,-0.0031 0.0026,-0.0016 0.0053,-0.0029 0.0083,-0.0036 0.0021,-7.93e-4 0.0029,-0.0013 0.0057,-0.0026 0.0016,-5.3e-4 0.0035,-0.0011 0.0052,-0.0021 0.0013,-5.29e-4 0.0024,-7.94e-4 0.0036,-0.0016 7.94e-4,-5.29e-4 0.0013,-0.0011 0.0021,-0.0016 2.64e-4,-1.8e-4 7.93e-4,-2.14e-4 0.0011,-5.29e-4 0.0011,-0.0021 0.0024,-0.0048 0.0041,-0.0067 0.0024,-0.0024 0.0048,-0.005 0.0078,-0.0067 0.0021,-0.0013 0.004,-0.0021 0.0062,-0.0031 0.0024,-0.0011 0.0045,-0.0021 0.0067,-0.0036 0.0021,-0.0011 0.004,-0.0024 0.0062,-0.0036 V 26.475518 Z m 2.51406,1.479497 h 5.29e-4 c 0.0041,0.0019 0.0081,0.0038 0.01291,0.0057 -0.01206,-5.3e-4 -0.03673,0.0019 -0.01344,-0.0057 z m -10.314101,3.756874 c -0.172522,0.539081 -0.357394,1.0745 -0.52038,1.61644 -0.119978,0.398923 -0.152096,0.544053 -0.254249,0.94723 -0.08205,0.36363 -0.117427,0.486746 -0.17105,0.842325 -0.02974,0.196953 -0.05646,0.338614 -0.03204,0.528651 0.01204,0.09365 0.06189,0.221453 0.09147,0.307474 0.268732,0.717294 0.603387,1.40774 0.914156,2.107364 0.238043,0.540528 0.432205,1.083869 0.762228,1.577166 0.245298,0.318204 0.559488,0.572844 0.876432,0.815969 0.257559,0.192601 0.525047,0.379921 0.819589,0.512631 0.16178,0.07289 0.427271,0.160271 0.581359,0.213942 0.518303,0.16234 1.042609,0.314629 1.579234,0.404108 0.229415,0.03827 0.337225,0.04317 0.564822,0.06304 0.208735,0.01606 0.41846,0.02442 0.62787,0.02066 0.0065,-0.003 0.0127,-0.0062 0.01913,-0.0093 0.08688,-0.04138 0.174233,-0.08138 0.261482,-0.121957 0.386014,-0.167534 0.782556,-0.308851 1.179259,-0.449067 -0.05394,-0.07448 -0.102725,-0.152894 -0.151413,-0.22996 -0.139332,-0.231462 -0.241816,-0.482272 -0.332796,-0.735875 -0.06157,-0.173617 -0.109863,-0.351456 -0.156064,-0.529682 -0.03346,-0.128995 -0.06705,-0.257527 -0.105937,-0.384988 -0.04254,-0.122533 -0.08373,-0.245737 -0.120922,-0.370004 -0.04031,-0.144735 -0.07719,-0.290054 -0.116271,-0.435115 -0.02506,-0.08279 -0.04748,-0.166364 -0.07441,-0.248565 -0.01452,-0.04381 -0.02848,-0.08826 -0.04393,-0.131773 -0.0226,-0.05294 -0.03713,-0.108704 -0.05323,-0.163814 -0.02183,-0.07408 -0.0411,-0.148786 -0.05736,-0.224277 -0.03864,-0.179345 -0.0062,-0.312341 0.0584,-0.394809 -0.01913,0.01643 -0.03871,0.03219 -0.05891,0.04651 -0.09293,0.06587 -0.220607,0.05886 -0.326594,0.04754 -0.01984,-0.0035 -0.04012,-0.0073 -0.05995,-0.01085 -0.220422,-0.03977 -0.245515,-0.118642 -0.183967,-0.212389 -0.0421,-0.02662 -0.08412,-0.05271 -0.130742,-0.07235 -0.09476,-0.05071 -0.188679,-0.102933 -0.278018,-0.162779 -0.140703,-0.0979 -0.277818,-0.201375 -0.412377,-0.307475 -0.13498,-0.109231 -0.266534,-0.222515 -0.384474,-0.350367 -0.09262,-0.09209 -0.189217,-0.179673 -0.284737,-0.268716 -0.116927,-0.109011 -0.237773,-0.213791 -0.355018,-0.322461 -0.161078,-0.146481 -0.326721,-0.288274 -0.482139,-0.440801 -0.123214,-0.126892 -0.242936,-0.256704 -0.360186,-0.389123 -0.06361,-0.07323 -0.125674,-0.14796 -0.183967,-0.225311 0.05241,0.281178 0.105614,0.562345 0.161229,0.842843 0.01397,0.07047 0.02788,0.140888 0.04186,0.211357 0.450474,2.270784 -1.843442,2.726122 -2.293916,0.455269 -0.014,-0.07055 -0.02786,-0.141325 -0.04186,-0.211873 -0.159486,-0.8045 -0.31564,-1.610709 -0.415478,-2.425173 -0.01987,-0.195276 -0.04405,-0.389883 -0.05943,-0.585494 -0.03005,-0.382167 -0.03866,-0.763964 -0.03669,-1.146186 z m 5.905066,4.80436 c 0.02402,0.02059 0.04773,0.04109 0.0739,0.05891 0.01857,0.0109 0.03786,0.02082 0.05684,0.03101 0.01103,0.0059 0.02098,0.01212 0.02997,0.0186 0.04409,-0.06305 0.0073,-0.102767 -0.160713,-0.108519 z m 9.388057,0.0186 c -0.0031,0.0016 -0.007,0.0024 -0.01035,0.0036 -1.8e-4,1.98e-4 -7.94e-4,-1.67e-4 -0.0011,0 v 5.29e-4 c 0.0011,1.27e-4 0.0024,5.29e-4 0.0036,5.29e-4 0.0032,1.43e-4 0.0061,5.3e-4 0.0083,0.0016 v -0.0062 z m -9.628868,0.04599 c -0.06095,0.05072 -0.119372,0.109082 -0.151413,0.180866 -0.06541,0.14655 -0.02601,0.209923 0.01654,0.328147 2.11e-4,2.62e-4 1.8e-5,7.94e-4 5.29e-4,0.0011 0.0788,-0.103097 0.243305,-0.217802 0.375168,-0.320394 -0.01466,-0.0081 -0.02934,-0.01625 -0.04341,-0.02532 -0.03226,-0.02238 -0.06242,-0.04701 -0.09199,-0.07286 -0.0352,-0.03027 -0.07039,-0.06089 -0.105418,-0.09147 z m 0.65319,0.286287 c -0.0021,0.0011 -0.0039,0.0027 -0.0062,0.0021 0.01088,0.06029 0.0081,0.123145 -0.03307,0.208256 -0.01921,0.0397 -0.04571,0.07592 -0.07596,0.109037 0.04086,-0.02818 0.08745,-0.04356 0.135908,-0.04186 0.0021,7.4e-5 0.0041,0.0013 0.0062,0.0016 -0.0016,-0.0043 -0.0024,-0.0088 -0.0026,-0.01344 8.2e-5,-0.0021 -6.6e-5,-0.0043 5.29e-4,-0.0062 7.94e-4,-0.0045 0.0021,-0.0087 0.0036,-0.01291 -0.0019,-0.0049 0.003,-0.01167 0.0052,-0.01757 -0.0019,-0.0016 -0.0038,-0.0035 -0.0057,-0.0052 -0.0049,-0.0047 -0.01021,-0.0087 -0.01497,-0.01344 -0.02532,-0.02437 -0.01556,-0.04984 0.0041,-0.05168 0.0051,-5.3e-4 0.01082,5.29e-4 0.01704,0.0036 v -5.29e-4 c -0.0019,-0.006 -0.0028,-0.01241 -0.0036,-0.0186 -7.94e-4,-0.0058 -0.0013,-0.01127 -0.0016,-0.01704 -1.13e-4,-0.0053 2.65e-4,-0.01069 0,-0.01603 -2.4e-4,-0.0045 -0.0016,-0.0089 -0.0021,-0.01344 -5.29e-4,-0.0046 -5.29e-4,-0.0088 -5.29e-4,-0.01344 -7.7e-5,-0.0044 1.8e-5,-0.0089 0,-0.01344 1.3e-5,-0.0026 -5.6e-5,-0.0062 -5.3e-4,-0.0088 -5e-6,-0.0011 -3.9e-5,-0.0021 -5.29e-4,-0.0031 -0.0019,-0.01072 -2.64e-4,-0.01873 0.0026,-0.02532 l -5.29e-4,-5.29e-4 c -0.0043,-0.004 -0.0085,-0.0072 -0.01344,-0.01035 -5.29e-4,-5.29e-4 -0.0013,-0.0011 -0.0021,-0.0016 -0.0092,-0.0061 -0.01,-0.01384 -0.0062,-0.0181 -0.0019,-7.94e-4 -0.0038,-0.0013 -0.0057,-0.0021 z m 0.03979,0.0155 c 7.94e-4,5.3e-4 0.0013,0.0011 0.0021,0.0016 l 5.29e-4,5.29e-4 c 2.65e-4,-1.03e-4 7.94e-4,-5.29e-4 0.0011,-5.29e-4 -0.0013,-7.94e-4 -0.0024,-0.0011 -0.0036,-0.0016 z m -0.790133,0.262001 c 0.0043,0.0049 0.0087,0.0094 0.01344,0.01394 0.0011,0.0013 0.005,0.004 0.0041,0.0026 -0.0041,-0.0067 -0.01066,-0.01185 -0.01757,-0.01654 z m 9.719302,1.09864 c -0.0089,0.02885 -0.01733,0.05781 -0.02376,0.08733 -0.01588,0.06223 -0.03139,0.124391 -0.04754,0.186553 -0.02379,0.08518 -0.04994,0.169849 -0.07286,0.25528 -0.03015,0.106765 -0.05947,0.213381 -0.08475,0.321429 -0.03068,0.126635 -0.05476,0.254963 -0.07338,0.383956 -0.02342,0.149344 -0.04269,0.299217 -0.06667,0.44855 -0.02074,0.126323 -0.04177,0.252834 -0.06459,0.378788 -0.0043,0.02373 -0.0097,0.04611 -0.0155,0.0677 0.161886,0.06252 0.289301,0.120097 0.449067,0.198437 z m -20.050455,0.563275 v 7.718906 h 1.014926 c -1.687074,-1.418772 -1.076835,-3.515664 1.025259,-3.800282 -0.156506,-0.186121 -0.304056,-0.380587 -0.438732,-0.586012 -0.08632,-0.139486 -0.17647,-0.276754 -0.258899,-0.418579 -0.326666,-0.56207 -0.567683,-1.166122 -0.825272,-1.761133 -0.170617,-0.384413 -0.346213,-0.767963 -0.517282,-1.1529 z" />
    </clipPath>
    <clipPath
       clipPathUnits="userSpaceOnUse"
       id="clipPath317">
      <path
         id="path318"
         style="fill:#ff0000;fill-opacity:1;fill-rule:nonzero;stroke:none;stroke-width:0.264583"
         d="m 35.883599,26.236641 v 10.605038 c 0.0016,2.64e-4 0.0035,5.29e-4 0.0052,0.0011 0.0042,7.94e-4 0.0087,0.0021 0.01291,0.0031 0.0052,0.0011 0.0105,0.0021 0.0155,0.0041 0.0062,0.0021 0.0122,0.0043 0.0181,0.0072 0.0058,0.0031 0.01148,0.0063 0.01704,0.0098 0.0046,0.0027 0.0092,0.0052 0.01394,0.0078 0.0063,0.0033 0.0093,0.0075 0.0098,0.01138 0.0026,0.0016 0.0048,0.0032 0.0078,0.0041 0.0195,0.0062 0.01071,0.02553 -0.0088,0.01913 -0.0029,-7.94e-4 -0.0057,-0.0021 -0.0083,-0.0036 2.64e-4,0.0011 0.0013,0.0011 0.0016,0.0021 5.29e-4,0.0024 -2.64e-4,0.0011 0.0011,0.0041 5.3e-4,0.0028 0.0024,0.0055 0.0026,0.0083 7.94e-4,0.0046 0.0011,0.0093 0.0011,0.01394 4.2e-5,0.0027 1.6e-5,0.0056 5.29e-4,0.0083 2.3e-4,0.0024 0.0011,0.0046 0.0016,0.0072 0.0016,0.0063 0.0028,0.0122 0.0036,0.0186 7.94e-4,0.0066 0.0021,0.01355 0.0026,0.02016 5.29e-4,0.0047 0.0016,0.0094 0.0031,0.01394 0.0011,0.0024 0.0019,0.0048 0.0031,0.0072 2.3e-4,5.29e-4 0.0024,0.0011 0.0031,0.0016 -0.01871,-0.01595 -0.01934,7.94e-4 -0.0186,0.0186 0.0026,0.0054 0.0043,0.01077 0.0062,0.01654 0.0038,0.01193 0.0067,0.0217 0.0031,0.0341 -1.27e-4,5.29e-4 -0.0029,0.0011 -0.0031,0.0016 0.005,0.0043 0.01077,0.0085 0.01601,0.01241 0.0013,0.0011 0.0016,0.0021 0.0031,0.0031 5.29e-4,2.62e-4 0.0021,0.0011 0.0026,0.0016 -0.04541,0.0071 0.02061,0.05629 -5.3e-4,0.05374 2.6e-4,5.3e-4 0.0029,0.0016 0.0031,0.0021 0.003,0.0051 0.006,0.01021 0.0093,0.01498 7.94e-4,0.0013 0.0021,0.0024 0.0031,0.0036 2.64e-4,5.29e-4 0.0024,0.0011 0.0026,0.0016 -0.0013,2.62e-4 -0.0013,0.0011 -0.0026,0.0016 0.09036,0.05019 0.171471,0.156274 0.208772,0.33228 0.01304,0.06159 0.02985,0.122523 0.04754,0.182933 0.01307,0.04484 0.02453,0.09041 0.04341,0.133326 0.01704,0.04846 0.03206,0.09745 0.04806,0.146243 0.02933,0.09157 0.05564,0.184198 0.08268,0.276471 0.03768,0.139893 0.07371,0.28039 0.112136,0.420127 0.03677,0.123301 0.07847,0.244586 0.11989,0.366387 0.0412,0.135358 0.07722,0.272317 0.112655,0.409276 0.04179,0.161258 0.08497,0.321852 0.14056,0.479041 0.07624,0.213786 0.161223,0.425765 0.276984,0.621668 0.01971,0.03152 0.03905,0.06348 0.05943,0.09457 0.04063,0.06199 0.08457,0.121669 0.129709,0.180351 0.0069,0.0089 0.0105,0.0069 0.0062,0.0093 -0.06449,0.03477 -0.109414,0.07446 -0.139526,0.115755 0.298667,-0.109355 0.591609,-0.233547 0.889868,-0.344164 0.380942,-0.14732 0.770329,-0.268547 1.171504,-0.347266 0.12505,-0.02453 0.251539,-0.04205 0.37724,-0.06305 0.600231,-0.08752 1.205971,-0.127251 1.811258,-0.159163 0.449403,-0.01775 0.899403,-0.0076 1.348237,0.01757 0.332418,0.01958 0.66193,0.06785 0.984438,0.147277 0.01968,-0.121719 0.04048,-0.243604 0.06046,-0.365352 0.02349,-0.147902 0.04309,-0.295945 0.06615,-0.4439 0.0209,-0.144764 0.04848,-0.288808 0.08268,-0.430982 0.02706,-0.115308 0.05775,-0.22968 0.08992,-0.343649 0.02275,-0.0849 0.04875,-0.168563 0.07235,-0.253214 0.01487,-0.05798 0.02964,-0.115641 0.04444,-0.173633 0.01024,-0.04519 0.02331,-0.08967 0.03721,-0.133842 0.01696,-0.05966 0.0384,-0.117816 0.06201,-0.175183 0.02646,-0.06278 0.0518,-0.125622 0.07648,-0.189135 0.0052,-0.02334 0.02212,-0.04818 0.0217,-0.07286 0.0068,-0.0589 0.01651,-0.117078 0.02532,-0.175699 0.0089,-0.05916 0.01598,-0.118692 0.02119,-0.178284 5.3e-4,-0.0062 0.0026,-0.01191 0.0031,-0.0181 0.0155,-0.204989 0.09899,-0.331362 0.198438,-0.38344 5e-5,-0.01148 0.0019,-0.02344 0.0031,-0.03617 0.0016,-0.01685 0.0039,-0.03495 0.0057,-0.05219 0.0021,-0.02043 0.0026,-0.04097 0.0031,-0.0615 -2.01e-4,-0.02011 0.0039,-0.03951 0.0062,-0.05943 7.93e-4,-0.0048 0.0021,-0.0097 0.0031,-0.01447 0.0073,-0.03973 0.03175,-0.05766 0.05943,-0.0677 -0.0071,-0.0024 -0.0076,-0.0087 -0.0031,-0.01394 -0.0098,-0.005 -0.0092,-0.01998 0.0088,-0.02946 0.0019,-0.0011 0.0036,-0.0019 0.0052,-0.0031 0.0026,-0.0016 0.0047,-0.0024 0.0078,-0.0031 0.0021,-7.94e-4 0.0024,-0.0013 0.0052,-0.0026 0.0016,-5.29e-4 0.0029,-5.29e-4 0.0047,-0.0016 0.0013,-5.29e-4 0.0024,-7.94e-4 0.0036,-0.0016 7.94e-4,-5.29e-4 0.0013,-0.0011 0.0021,-0.0016 2.65e-4,-1.8e-4 7.94e-4,-2.25e-4 0.0011,-5.29e-4 0.0011,-0.0021 0.0024,-0.0048 0.0041,-0.0067 0.0024,-0.0024 0.0048,-0.005 0.0078,-0.0067 0.0021,-0.0013 0.004,-0.0021 0.0062,-0.0031 0.0013,-5.29e-4 0.0024,-0.0011 0.0036,-0.0016 v -0.0078 -0.0098 -0.0093 -0.0088 -0.0067 -0.0052 c 0,-0.0081 0.0021,-0.01408 0.0052,-0.0181 -2.32e-4,-0.0019 -5.29e-4,-0.0043 -0.0011,-0.0062 -0.0033,-0.01497 0.0028,-0.02416 0.01035,-0.02585 0.0033,-7.94e-4 0.007,1.61e-4 0.01035,0.0026 1.82e-4,-0.0016 1.74e-4,-0.0035 5.29e-4,-0.0052 0.0013,-0.01339 0.0078,-0.02106 0.01447,-0.02273 0.0087,-0.0021 0.01767,0.0055 0.01654,0.02273 -1.61e-4,0.0026 -0.0013,0.0062 -0.0016,0.0088 0.0082,-0.0043 0.01839,-0.0081 0.03152,-0.0093 0.0039,-5.29e-4 0.0076,-0.0024 0.01138,-0.0031 0.0067,-0.0016 0.0127,-0.0055 0.0186,-0.0088 0.0035,-0.0019 0.0073,-0.0043 0.01085,-0.0062 0.0021,-0.0052 0.006,-0.0104 0.01241,-0.01551 0.0038,-0.003 0.0044,-0.0045 0.0062,-0.0093 0.0036,-0.0078 0.007,-0.01511 0.0098,-0.02326 0.0016,-0.0034 0.0037,-0.0067 0.0057,-0.0098 -7.94e-4,-0.0013 -0.0024,-0.0019 -0.0031,-0.0031 -0.0057,-0.01204 -0.0084,-0.01736 -0.01241,-0.03049 -0.0072,-0.02365 -0.0084,-0.04832 -0.0083,-0.07286 7.94e-4,-0.03697 0.0013,-0.07415 0.0026,-0.111104 0.0013,-0.03834 0.0199,-0.05859 0.03927,-0.06098 0.0069,-7.94e-4 0.01389,2.19e-4 0.02016,0.0036 0.03526,-0.138073 0.14809,-0.282586 0.365871,-0.391192 0.04519,-0.02252 0.08161,-0.06258 0.124024,-0.08992 0.09272,-0.06848 0.187946,-0.133541 0.283186,-0.198438 0.124425,-0.08388 0.241242,-0.178575 0.363802,-0.265099 0.205486,-0.150685 0.405302,-0.310142 0.582911,-0.493509 0.08195,-0.08714 0.09979,-0.103423 0.176216,-0.192754 0.08203,-0.09587 0.156345,-0.198041 0.241845,-0.290938 0.06662,-0.07355 0.131797,-0.148395 0.203604,-0.217041 0.04817,-0.04999 0.09186,-0.104227 0.130742,-0.161748 0.06349,-0.08584 0.1217,-0.175307 0.177768,-0.266133 0.08085,-0.126463 0.158247,-0.25504 0.235127,-0.383956 0.05044,-0.08207 0.101859,-0.163602 0.147278,-0.248565 0.02511,-0.05081 0.05063,-0.101055 0.07441,-0.152445 0.02381,-0.06244 0.05116,-0.124365 0.06821,-0.189135 0.03544,-0.130148 0.07285,-0.25935 0.129191,-0.382405 0.07092,-0.158332 0.147489,-0.314875 0.237196,-0.463539 0.08454,-0.140417 0.166973,-0.281557 0.251148,-0.422196 0.01349,-0.02315 0.02739,-0.04611 0.04082,-0.06925 -0.0131,-0.01799 -0.02516,-0.03364 -0.04031,-0.05891 -0.08281,-0.138152 -0.132244,-0.291822 -0.140044,-0.453202 -0.003,-0.06095 0.0043,-0.121425 0.0062,-0.182417 0.01021,-0.05523 0.01818,-0.11172 0.03101,-0.166399 0.06933,-0.295275 0.207327,-0.568105 0.332279,-0.842325 0.178898,-0.398187 0.355838,-0.801923 0.450618,-1.2299 0.0092,-0.05057 0.01958,-0.101113 0.02739,-0.151929 0.02648,-0.172307 0.02734,-0.347551 0.03152,-0.521414 -0.0011,-0.04278 -0.0024,-0.08592 -0.0036,-0.128675 -0.01341,-0.0082 -0.02633,-0.01669 -0.03979,-0.02479 -0.148164,-0.08977 -0.30154,-0.170866 -0.456821,-0.247529 -0.16283,-0.07867 -0.333204,-0.141139 -0.504362,-0.198956 -0.150527,-0.04818 -0.301025,-0.09537 -0.454234,-0.134358 -0.137782,-0.03366 -0.277615,-0.05843 -0.417547,-0.08113 -0.152027,-0.02803 -0.305631,-0.04486 -0.459404,-0.05943 -0.183103,-0.0163 -0.365721,-0.03759 -0.548286,-0.05891 -0.152352,-0.01537 -0.303995,-0.03537 -0.456303,-0.05116 -0.126243,-0.01482 -0.252772,-0.02479 -0.379307,-0.03669 -0.09255,-0.0095 -0.185592,-0.01426 -0.278534,-0.01757 -0.108712,-0.003 -0.217334,-0.0024 -0.326078,-0.0031 -0.08559,-7.94e-4 -0.171455,-7.94e-4 -0.256831,0.0062 -0.107016,0.01241 -0.214466,0.02215 -0.321429,0.03514 -0.06731,0.0098 -0.135152,0.01752 -0.20102,0.03514 -0.02241,0.006 -0.06818,0.02183 -0.08785,0.02842 -0.14755,0.05257 -0.293483,0.108961 -0.440801,0.162264 -0.171405,0.06108 -0.343635,0.119361 -0.517797,0.172082 -0.106918,0.03205 -0.215591,0.0595 -0.324528,0.08372 -0.228018,0.0507 -0.403598,0.01971 -0.521933,-0.05271 -0.01839,0.0039 -0.03674,0.0079 -0.05529,0.01138 -0.0459,0.01003 -0.09243,0.01778 -0.13901,0.02376 -0.03249,0.0042 -0.06541,0.0066 -0.09767,0.01241 -0.01453,0.0024 -0.02363,0.0084 -0.03979,0.01394 -0.01487,0.0051 -0.02931,0.01119 -0.04341,0.0181 -0.0328,0.0158 -0.06485,0.03282 -0.09767,0.04858 -0.03672,0.01741 -0.07286,0.03583 -0.110069,0.05219 -0.03975,0.01696 -0.07942,0.03495 -0.118341,0.05374 -0.05041,0.02286 -0.100803,0.04518 -0.150894,0.06873 -0.03224,0.01627 -0.0652,0.03068 -0.09715,0.04754 -0.02445,0.01262 -0.04875,0.02601 -0.07338,0.03824 -0.02619,0.01471 -0.05183,0.02973 -0.07803,0.04444 -0.04905,0.02753 -0.09746,0.05624 -0.146243,0.08423 -0.0446,0.024 -0.0874,0.05183 -0.128675,0.08113 -0.06597,0.04768 -0.13086,0.09658 -0.196887,0.144177 -0.05496,0.03927 -0.11126,0.07651 -0.168981,0.111623 -0.03246,0.01998 -0.06462,0.0408 -0.09664,0.06149 -0.03123,0.02098 -0.064,0.03844 -0.09922,0.05168 -0.0024,0.0011 -0.0047,0.0021 -0.0072,0.0031 -0.02582,0.0098 0.0055,-0.0024 -0.02376,0.0083 -0.0013,5.3e-4 -0.0047,0.0019 -0.0067,0.0026 l 5.29e-4,5.29e-4 c -0.03121,0.01765 -0.06226,0.03556 -0.09405,0.0522 -0.0071,0.0035 -0.01407,0.0068 -0.02119,0.01035 -0.08575,0.04243 -0.153895,0.03393 -0.19327,0.0021 -7.94e-4,0.0038 -0.0024,0.0079 -0.0047,0.01085 l -0.0031,0.0041 c -0.003,0.0032 -0.0064,0.0054 -0.01035,0.0072 -0.0016,7.94e-4 -0.0036,0.0013 -0.0052,0.0021 -0.0066,0.0034 -0.01336,0.0039 -0.02066,0.0047 -0.0074,5.29e-4 -0.01431,0.0019 -0.0217,0.0011 -0.0024,-2.65e-4 -0.0049,-0.0011 -0.0072,-0.0016 -0.0067,-0.0016 -0.01333,-0.0032 -0.01963,-0.0062 -0.0043,-0.0021 -0.0053,-0.0028 -0.0093,-0.0052 -0.0067,-0.0043 -0.01281,-0.0096 -0.0186,-0.01498 -0.0032,-0.0032 -0.0065,-0.0063 -0.0098,-0.0093 -0.0013,-0.0011 -0.0028,-0.0024 -0.0041,-0.0036 -0.0278,-0.02484 -0.01148,-0.05057 0.01344,-0.04341 0.0034,-0.0049 0.0094,-0.0083 0.01707,-0.0088 0.0066,-5.29e-4 0.0149,0.0016 0.02376,0.0062 0.0011,5.29e-4 0.0021,0.0011 0.0031,0.0016 -0.0013,-0.0043 -0.0024,-0.0086 -0.0036,-0.01291 -0.0076,-0.02627 0.0032,-0.04353 0.01654,-0.04393 0.0091,-2.65e-4 0.01918,0.0073 0.02582,0.02479 7.94e-4,0.0021 0.0013,0.0045 0.0021,0.0067 0.0026,-0.04859 0.03834,-0.103897 0.119372,-0.143661 0.0054,-0.0026 0.01114,-0.0052 0.01654,-0.0078 0.03233,-0.01685 0.06363,-0.03571 0.0956,-0.05323 0.02167,-0.01048 0.04352,-0.01876 0.06615,-0.02687 0.01799,-0.005 0.03234,-0.01807 0.04857,-0.02687 0.034,-0.02193 0.06834,-0.04447 0.102835,-0.06563 0.05221,-0.03153 0.102746,-0.06545 0.152445,-0.10077 0.06667,-0.04804 0.132289,-0.09766 0.198956,-0.145727 0.04776,-0.03362 0.09686,-0.06527 0.14831,-0.09302 0.04947,-0.02835 0.09856,-0.05791 0.148312,-0.08578 0.02987,-0.01675 0.0592,-0.03402 0.0894,-0.05012 0.02299,-0.01138 0.04538,-0.02395 0.06821,-0.03566 0.03523,-0.01839 0.07138,-0.03455 0.106971,-0.05219 0.04938,-0.02318 0.09908,-0.04585 0.148828,-0.06822 0.0418,-0.02008 0.08395,-0.03916 0.126609,-0.05736 0.03457,-0.01482 0.06821,-0.03224 0.102317,-0.04806 0.03266,-0.01566 0.06449,-0.03295 0.09715,-0.04858 0.02326,-0.01117 0.04686,-0.02167 0.07131,-0.02997 0.02603,-0.0084 0.05089,-0.02056 0.07855,-0.02326 0.03555,-0.0057 0.07121,-0.0098 0.106971,-0.01394 0.02053,-0.0026 0.04106,-0.0057 0.06149,-0.0093 -0.04098,-0.193209 0.09943,-0.425948 0.461987,-0.521415 z m 13.129948,0 c 0.142298,0.05204 0.283456,0.107148 0.41961,0.173633 0.01244,0.0062 0.02429,0.01343 0.03669,0.01964 -0.01011,-0.06454 -0.02106,-0.128955 -0.03256,-0.19327 z m 1.261938,0 c 0.01013,0.06365 0.02159,0.127105 0.03204,0.190686 0.02853,0.163147 0.04226,0.328139 0.05633,0.492995 0.0011,0.01101 0.0011,0.02207 0.0021,0.03307 0.184682,0.118205 0.36966,0.236125 0.552937,0.356566 0.216649,0.146637 0.429088,0.299286 0.63872,0.455787 0.195966,0.143415 0.390887,0.28842 0.591179,0.425813 0.207098,0.142647 0.413965,0.285789 0.614432,0.4377 0.236148,0.181364 0.46532,0.37134 0.68988,0.566891 0.306591,0.262974 0.60907,0.530619 0.911055,0.798917 0.05185,0.04606 0.09226,0.09258 0.128159,0.139009 0.79261,0.195969 1.264034,0.07351 0.810287,-0.998905 0.01349,0.02799 0.0259,0.05641 0.03979,0.08423 0.02656,0.07052 0.06183,0.122497 0.10077,0.193786 0.08951,0.163883 0.174151,0.32998 0.25528,0.49816 0.07979,0.167063 0.160914,0.333714 0.235127,0.50333 v -4.178041 z m 0.111619,1.713074 c -0.0052,0.07366 -0.01164,0.147207 -0.02222,0.220142 -0.0098,0.06791 -0.02296,0.134948 -0.03462,0.20257 -0.0475,0.228404 -0.117012,0.450345 -0.196887,0.668695 0.09459,0.03781 0.16115,0.10346 0.23151,0.198437 0.04375,0.05905 0.07328,0.186148 0.07958,0.260967 0.0038,0.04523 -3.7e-5,0.09052 0,0.135908 -0.01625,0.206759 -0.08109,0.404482 -0.161229,0.594278 -0.04934,0.118245 -0.117959,0.226825 -0.177253,0.340032 -0.0428,0.0831 -0.08173,0.167783 -0.118337,0.25373 -0.03254,0.08357 -0.06898,0.165291 -0.106971,0.246497 -0.04403,0.09121 -0.09381,0.179041 -0.146243,0.265618 -0.06358,0.101777 -0.123611,0.206351 -0.18397,0.310057 -0.08615,0.144161 -0.170802,0.288623 -0.257347,0.432533 -0.07208,0.120012 -0.133919,0.2463 -0.190688,0.374136 -0.03878,0.08419 -0.06219,0.173474 -0.0863,0.262517 -0.02302,0.09132 -0.05978,0.177787 -0.09302,0.265618 -0.03059,0.07675 -0.0696,0.149694 -0.105937,0.223758 -0.05562,0.108657 -0.120189,0.212238 -0.183967,0.316259 -0.0793,0.133274 -0.159906,0.266171 -0.243398,0.396875 -0.0654,0.10649 -0.134835,0.21036 -0.208773,0.311092 -0.05761,0.08481 -0.124055,0.162745 -0.193786,0.237712 -0.06797,0.06501 -0.129767,0.135978 -0.192751,0.205672 -0.01344,0.015 -0.02725,0.02964 -0.04031,0.04496 -0.06093,0.0715 -0.117266,0.146582 -0.178284,0.218075 -0.09384,0.109937 -0.108622,0.123868 -0.209288,0.231508 -0.211775,0.221012 -0.451128,0.41261 -0.697116,0.593765 -0.12981,0.09361 -0.256024,0.192233 -0.388088,0.28267 -0.08592,0.05898 -0.172675,0.116583 -0.256315,0.1788 -0.06672,0.05321 -0.135573,0.102727 -0.209291,0.145727 -0.317794,0.185402 -0.578953,0.132493 -0.704866,-0.01497 -0.0016,0.0075 -0.005,0.01466 -0.01035,0.02223 -0.005,0.0053 -0.0096,0.01085 -0.01394,0.01654 -0.0071,0.0084 -0.01413,0.0167 -0.02273,0.02379 -0.0069,0.0054 -0.014,0.01016 -0.0217,0.01447 -0.0083,0.0045 -0.01712,0.008 -0.02585,0.01138 -0.0068,0.0024 -0.0113,0.0057 -0.0181,0.0093 -0.0097,0.0069 -0.02088,0.01069 -0.03204,0.01447 -0.0096,0.003 -0.01998,0.0052 -0.02997,0.0062 -0.009,7.94e-4 -0.01302,-0.0019 -0.02016,-0.0031 l -0.0026,0.0031 c -0.0011,7.94e-4 -0.0024,0.0019 -0.0036,0.0026 1.72e-4,7.94e-4 1.61e-4,0.0019 5.29e-4,0.0026 1.27e-4,0.0011 -1.27e-4,0.0021 0,0.0031 0.0029,0.0231 -0.01394,0.02798 -0.02376,0.01706 0.0011,0.0059 -0.0024,0.01349 -0.01188,0.02016 -0.004,0.0028 -0.0081,0.0052 -0.01241,0.0078 -2.62e-4,1.8e-4 -7.93e-4,2.12e-4 -0.0011,5.29e-4 -0.0024,0.0011 -0.0026,0.0031 -0.0052,0.0026 -2.65e-4,1.59e-4 -7.94e-4,2.22e-4 -0.0011,5.29e-4 0.01405,0.0046 0.01762,0.015 0.01241,0.02222 0.0011,5.29e-4 0.0024,0.0011 0.0036,0.0016 0.0077,0.0044 0.01191,0.0085 0.01035,0.01757 0.05016,0.02085 0.0773,0.06421 0.0067,0.09715 v 0.0026 c -0.0016,0.01497 -0.0056,0.02986 -0.0057,0.04496 -5.29e-4,0.02503 -0.0011,0.05001 -0.0036,0.07493 -0.0019,0.01704 -0.0037,0.03428 -0.0067,0.05116 0.129135,0.0345 0.238273,0.185523 0.218075,0.447003 -5.29e-4,0.0083 -0.0013,0.01701 -0.0021,0.02532 -0.0063,0.07174 -0.01455,0.143241 -0.02532,0.214458 -0.0095,0.06282 -0.0199,0.12559 -0.0279,0.188619 -0.01175,0.06294 -0.0288,0.124458 -0.05271,0.183968 -0.02614,0.06712 -0.05268,0.134091 -0.08062,0.200504 -0.0173,0.04185 -0.03357,0.08421 -0.04496,0.128159 -0.01069,0.03393 -0.02082,0.06752 -0.02842,0.102319 -0.01587,0.06223 -0.0314,0.124905 -0.04754,0.187069 -0.02379,0.08518 -0.04996,0.16933 -0.07286,0.254764 -0.03015,0.106762 -0.05947,0.213381 -0.08475,0.321427 -0.03068,0.126627 -0.05476,0.254976 -0.07338,0.383955 -0.02341,0.149397 -0.04271,0.299223 -0.06666,0.448553 -0.02074,0.126312 -0.04181,0.252834 -0.0646,0.378788 -0.0043,0.02392 -0.0096,0.04647 -0.0155,0.06821 0.1876,0.0722 0.318135,0.134562 0.551905,0.247531 0.603168,0.307176 1.101741,0.765889 1.609203,1.204576 0.06928,0.0593 0.138764,0.118623 0.207741,0.178284 0.184218,0.159369 0.265514,0.230614 0.444418,0.394293 0.01212,0.01109 0.02413,0.02241 0.03617,0.03359 0.03016,5.29e-4 0.144859,0.01537 0.423746,0.0155 0.182544,9.8e-5 0.365244,-0.0024 0.547769,-0.0031 0.507362,-0.0078 1.017106,-0.01204 1.523939,-0.04909 0.109638,-0.23318 0.21553,-0.467815 0.335381,-0.695563 0.05799,-0.110199 0.120832,-0.218297 0.181382,-0.327112 0.271092,-0.442365 0.61999,-0.83167 1.023194,-1.157552 0.207539,-0.167738 0.304948,-0.227039 0.515731,-0.36897 7.94e-4,-5.29e-4 0.31776,-0.202998 0.343131,-0.220141 0.0965,-0.06519 0.06895,-0.06686 0.02429,-0.04083 -0.01124,0.0082 -0.03759,0.03786 -0.03359,0.02429 0.01106,-0.03735 0.03897,-0.06822 0.05684,-0.102839 0.02069,-0.04006 0.0391,-0.08043 0.05891,-0.120919 0.10269,-0.209947 0.205637,-0.419042 0.299722,-0.633037 0.09537,-0.198962 0.142431,-0.409475 0.15348,-0.628386 0.01804,-0.288589 0.0095,-0.578098 -0.01344,-0.866097 -0.02516,-0.269447 -0.03587,-0.540742 -0.07493,-0.808736 -0.0043,-0.02937 -0.04783,-0.262808 -0.05013,-0.274918 -0.05794,-0.322564 -0.154913,-0.637628 -0.232026,-0.956017 -0.09504,-0.385934 -0.1557,-0.778314 -0.218594,-1.170469 -0.03634,-0.239834 -0.09751,-0.47481 -0.15141,-0.711067 -0.02681,-0.159258 -0.07749,-0.309565 -0.128675,-0.462505 -0.01098,-0.03367 -0.02167,-0.06723 -0.03307,-0.100769 -0.03797,-0.111731 -0.07636,-0.222586 -0.108003,-0.336413 -0.04423,-0.159139 -0.05607,-0.242096 -0.04444,-0.162263 -0.05082,-0.107839 -0.112667,-0.230074 -0.166915,-0.343649 -0.123489,-0.249016 -0.26026,-0.490736 -0.379304,-0.742074 -0.07514,-0.150122 -0.145584,-0.3087 -0.20774,-0.441318 -0.01826,-0.04153 -0.03652,-0.08352 -0.05478,-0.125058 -0.803524,-1.829093 0.279263,-1.652314 1.599904,-1.193725 -0.05846,-0.04662 -0.116332,-0.09454 -0.175702,-0.140042 -0.189309,-0.143198 -0.384358,-0.278826 -0.579811,-0.413411 -0.206809,-0.141814 -0.408479,-0.290679 -0.610814,-0.438732 -0.201515,-0.150217 -0.405096,-0.297537 -0.6134,-0.438216 -0.02521,-0.01651 -0.05068,-0.03266 -0.07596,-0.04909 z m 4.739765,0.811837 c 0.0029,0.0058 0.0059,0.0118 0.0088,0.01757 0.05118,0.100515 0.09105,0.18932 0.130225,0.277503 -0.04633,-0.09838 -0.09299,-0.196488 -0.139009,-0.295072 z M 50.168514,29.7248 c -0.0016,0 -0.0024,0.0019 -0.0036,0.0026 -0.0024,0.0042 -0.0039,0.0087 -0.0062,0.01291 0.0035,-0.0044 0.0071,-0.0084 0.01035,-0.01291 5.29e-4,-7.94e-4 2.64e-4,-0.0026 -5.29e-4,-0.0026 z m -5.317506,6.805787 c -0.0031,0.0016 -0.007,0.0024 -0.01035,0.0036 -2.65e-4,2.64e-4 -7.94e-4,2.27e-4 -0.0011,5.29e-4 7.94e-4,0 0.0013,-1.1e-5 0.0021,0 0.0013,5e-5 0.0028,5.29e-4 0.0041,5.29e-4 7.94e-4,3.2e-5 5.3e-4,5.29e-4 0.0011,5.29e-4 0.0047,-0.0011 0.007,-0.0021 0.0047,-0.0052 z m -8.935887,0.347781 c 7.94e-4,5.3e-4 0.0013,0.0011 0.0021,0.0016 l 5.29e-4,5.29e-4 c 2.65e-4,-1.03e-4 7.94e-4,-5.29e-4 0.0011,-5.29e-4 -0.0013,-7.94e-4 -0.0024,-0.0011 -0.0036,-0.0016 z m -0.03152,0.0021 v 0.142629 c 0.0024,-0.0011 0.0047,-0.0019 0.0078,-0.0021 0.0051,-5.29e-4 0.0108,5.3e-4 0.01707,0.0036 v -5.29e-4 c -0.0019,-0.006 -0.0028,-0.01241 -0.0036,-0.0186 -7.94e-4,-0.0058 -7.94e-4,-0.01127 -0.0011,-0.01704 -1.13e-4,-0.0053 2.65e-4,-0.01069 0,-0.01603 -2.4e-4,-0.0045 -0.0011,-0.0089 -0.0016,-0.01344 -5.29e-4,-0.0046 -5.29e-4,-0.0088 -5.29e-4,-0.01344 -7.7e-5,-0.0044 1.8e-5,-0.0089 0,-0.01344 1.6e-5,-0.0026 -4.3e-5,-0.0057 -5.29e-4,-0.0083 -6e-6,-0.0011 1.3e-5,-0.0021 -5.3e-4,-0.0031 -0.0019,-0.01072 -2.64e-4,-0.01873 0.0026,-0.02532 l -5.29e-4,-5.29e-4 c -0.0043,-0.004 -0.0085,-0.0072 -0.01344,-0.01035 -5.29e-4,-5.29e-4 -0.0013,-0.0011 -0.0021,-0.0016 -0.0013,-7.93e-4 -0.0026,-0.0016 -0.0036,-0.0026 z m 0,0.188103 v 0.07183 c 0.0038,-5.8e-5 0.0075,-5.29e-4 0.01138,-5.29e-4 0.0021,7.4e-5 0.0041,0.0013 0.0062,0.0016 -0.0016,-0.0043 -0.0024,-0.0088 -0.0026,-0.01344 8.2e-5,-0.0021 -1e-4,-0.0043 5.29e-4,-0.0062 7.94e-4,-0.0045 0.0021,-0.0087 0.0036,-0.01291 -0.0019,-0.0049 0.003,-0.01167 0.0052,-0.01757 -0.0019,-0.0016 -0.0038,-0.0035 -0.0057,-0.0052 -0.0049,-0.0047 -0.01029,-0.0087 -0.01497,-0.01344 -0.0013,-0.0013 -0.0024,-0.0028 -0.0036,-0.0041 z m 0,1.366843 V 41.4523 c 0.321251,-0.131397 0.647779,-0.249849 0.974616,-0.366903 -0.05427,-0.07482 -0.103502,-0.153525 -0.152445,-0.230992 -0.139332,-0.23146 -0.241816,-0.482272 -0.332795,-0.735875 -0.06157,-0.173617 -0.109863,-0.351457 -0.156065,-0.529683 -0.03346,-0.128995 -0.06705,-0.257526 -0.105936,-0.384987 -0.04254,-0.122534 -0.08373,-0.245737 -0.120923,-0.370004 -0.03691,-0.132527 -0.07097,-0.265562 -0.106452,-0.398425 z m 14.601174,3.865396 c -0.03742,0.0072 -0.0642,0.01418 -0.0956,0.02119 0.01614,-0.0024 0.03245,-0.0032 0.04858,-0.0057 0.01553,-0.0052 0.06336,-0.0186 0.04702,-0.0155 z m 5.448763,0.01654 c -0.0655,0.09633 -0.128561,0.194053 -0.200504,0.286287 -0.08641,0.09723 -0.169087,0.198374 -0.259416,0.291973 -0.321416,0.333031 -0.69741,0.604256 -1.091922,0.84336 -0.02482,0.01572 -0.04959,0.03133 -0.07441,0.04702 -0.0039,1.53e-4 -0.0082,-7.94e-4 -0.01188,5.29e-4 -0.01916,0.0065 -0.03494,0.02326 -0.02894,0.0088 0.0472,-0.114747 0.02281,-0.01508 0.03721,-0.08113 -0.05143,0.04941 -0.192836,0.3878 -0.206706,0.417029 -0.128148,0.269938 -0.262046,0.536929 -0.396875,0.803568 -0.255005,0.463712 -0.517612,0.938348 -0.936895,1.281576 -0.0333,0.02726 -0.06525,0.04546 -0.09818,0.0708 h 3.268533 z m -8.671306,0.126608 c 0.02032,0.01892 0.04069,0.03792 0.06098,0.05684 h 5.29e-4 c 0.0019,-0.0035 0.103016,0.03266 0.07441,0.01497 -0.09368,-0.05668 -0.126283,-0.06485 -0.135911,-0.07183 z m 0.0987,0.09147 c 0.01071,0.0099 0.02125,0.02014 0.03204,0.02997 0.03863,0.03527 0.153577,0.141586 0.116787,0.104386 -0.04541,-0.04592 -0.09544,-0.08722 -0.143142,-0.130739 -0.0016,-0.0013 -0.0039,-0.0024 -0.0057,-0.0036 z" />
    </clipPath>
    <clipPath
       clipPathUnits="userSpaceOnUse"
       id="clipPath320">
      <path
         id="path321"
         style="fill:#ff0000;fill-opacity:1;fill-rule:nonzero;stroke:none;stroke-width:0.264583"
         d="m 29.997651,17.683158 v 3.972368 c 0.263991,-0.290281 0.544433,-0.56493 0.837158,-0.826306 0.114419,-0.09334 0.226838,-0.189757 0.343651,-0.280087 0.356973,-0.276072 0.746776,-0.505228 1.124477,-0.750858 0.03781,-0.0242 0.07486,-0.04895 0.113173,-0.07235 h 5.29e-4 c 0.0051,-0.05509 0.0079,-0.11036 0.01394,-0.165365 0.06359,-0.627063 0.141412,-1.252634 0.225309,-1.877405 z m 16.982427,0 c 0.163539,0.06023 0.326329,0.122239 0.486275,0.192237 0.126476,0.06387 0.254511,0.124629 0.379304,0.191719 0.184859,0.09939 0.458375,0.267848 0.635622,0.377755 0.440346,0.273052 0.877316,0.55157 1.308965,0.838192 0.08591,0.05804 0.171448,0.117397 0.257347,0.1757 V 17.683158 Z M 32.41611,19.736263 c -0.01513,0.01447 -0.0027,0.0044 -5.29e-4,0.0026 8.2e-5,-8.73e-4 5.29e-4,-0.0017 5.29e-4,-0.0026 z m -0.0011,0.01188 c -0.0051,0.0067 -0.01619,0.02042 -0.01188,0.0155 0.0041,-0.0047 0.0078,-0.0098 0.01188,-0.01447 3.2e-5,-3.44e-4 -2.9e-5,-10e-4 0,-10e-4 z m 5.632215,0.292488 5.29e-4,5.29e-4 c -7.94e-4,-2.64e-4 0.0043,7.68e-4 0.0036,5.3e-4 -0.0011,-3.18e-4 -0.0032,-10e-4 -0.0041,-10e-4 z m 0.0041,10e-4 v 5.29e-4 c -0.0011,-3.44e-4 0.006,8.47e-4 0.0052,5.29e-4 -0.0013,-4.23e-4 -0.0039,-8.73e-4 -0.0052,-10e-4 z m 0.0062,0.001 v 5.29e-4 c -7.94e-4,-3.17e-4 0.0059,7.94e-4 0.0052,5.29e-4 -0.0016,-4.49e-4 -0.0037,-6.88e-4 -0.0052,-0.001 z m 0.0052,0.001 5.29e-4,5.29e-4 c -5.29e-4,-2.03e-4 0.004,7.14e-4 0.0036,5.29e-4 -0.0013,-3.97e-4 -0.0029,-6.88e-4 -0.0041,-0.001 z m 0.0041,10e-4 c 0.02516,0.0074 0.06066,0.01751 0.07907,0.02067 0.01376,0.0024 0.02862,-0.0014 0.04186,0.0031 0.0034,0.0011 -0.0039,0.0063 -0.0057,0.0093 -0.196045,0.05911 -0.385736,0.135203 -0.572574,0.218592 -0.12006,0.253706 -0.247531,0.504673 -0.379306,0.752408 -0.08451,0.164946 -0.181309,0.322129 -0.283187,0.47594 -0.05297,0.400408 -0.130537,0.797008 -0.218074,1.191142 -0.116698,0.472313 -0.262377,0.936822 -0.415478,1.398364 -0.205854,0.60818 -0.39954,1.220133 -0.595831,1.831413 -0.05289,0.161058 -0.109755,0.320726 -0.164846,0.481108 0.113654,-2.91e-4 0.227425,8.47e-4 0.341063,-0.0016 0.226367,-0.0047 0.452274,-0.01414 0.678511,-0.02274 0.133985,-0.0081 0.267743,-0.0065 0.401527,0.0036 0.161313,0.01398 0.319103,0.0505 0.476972,0.08475 0.164814,0.0344 0.330779,0.0647 0.495578,0.09922 0.145214,0.02926 0.290697,0.05792 0.436665,0.0832 0.122055,0.01818 0.24347,0.03969 0.364321,0.0646 0.08511,0.01651 0.167111,0.04383 0.248563,0.07286 0.06118,0.02418 0.121375,0.04997 0.181385,0.077 0.06258,0.03276 0.128341,0.05881 0.191201,0.09095 0.336611,0.172106 0.108273,0.303514 -0.156062,0.413927 0.02233,0.01262 0.04202,0.02885 0.06305,0.04341 0.03564,0.02556 0.07075,0.05197 0.107487,0.07596 0.01632,0.01151 0.03445,0.0181 0.05374,0.02222 0.01897,0.0037 0.03861,0.0049 0.05788,0.0057 0.0468,0.0016 0.09198,0.01238 0.135911,0.02791 0.02959,0.01072 0.05818,0.02424 0.08578,0.03927 0.01447,0.0065 0.02693,0.01643 0.04031,0.02479 0.0027,7.94e-4 0.0052,0.0019 0.0078,0.0031 0.0241,0.0094 0.04765,0.01942 0.0708,0.031 0.02019,0.009 0.04096,0.01712 0.0615,0.02532 0.02566,0.0096 0.05033,0.02114 0.07545,0.03204 0.01352,0.0044 0.02577,0.01191 0.03824,0.0186 0.107614,0.05744 0.02201,0.08847 -0.06305,0.11679 0.0062,0.0057 0.01241,0.01138 0.0186,0.01707 0.0097,0.0088 0.01905,0.01781 0.02946,0.02585 0.0066,0.0051 0.01368,0.0089 0.02119,0.01241 0.0092,0.0037 0.01818,0.0077 0.02687,0.01241 0.0019,0.0011 0.0034,0.0021 0.0052,0.0031 0.0034,0.0011 0.007,0.0013 0.01035,0.0026 0.0072,0.0029 0.01397,0.0063 0.02066,0.01035 0.0036,0.0021 0.0071,0.0041 0.01085,0.0062 0.0043,0.0024 0.0086,0.0052 0.01291,0.0078 0.0054,0.0032 0.01103,0.0063 0.01654,0.0093 0.0052,0.0029 0.0104,0.0056 0.0155,0.0088 0.0048,0.0028 0.0086,0.0066 0.01241,0.01035 0.0029,-0.0087 0.01185,-0.01437 0.02273,-0.01291 0.0028,-0.01828 0.01191,-0.02924 0.0217,-0.03049 0.01109,-0.0016 0.02143,0.0096 0.02273,0.02997 5.29e-4,2.64e-4 0.0011,7.94e-4 0.0016,0.0011 7.94e-4,5.29e-4 0.0019,5.29e-4 0.0026,0.0011 -0.0011,-0.0042 -0.0024,-0.0083 -0.0036,-0.01241 -0.0076,-0.02627 0.0032,-0.04353 0.01654,-0.04393 0.0091,-2.64e-4 0.01916,0.0073 0.02582,0.02479 7.94e-4,0.0021 0.0013,0.0045 0.0021,0.0067 0.0031,-0.04833 0.03895,-0.102647 0.119372,-0.14211 0.0054,-0.0026 0.01114,-0.0057 0.01654,-0.0083 0.03233,-0.01685 0.06363,-0.03571 0.0956,-0.05323 0.02167,-0.01048 0.04404,-0.01876 0.06667,-0.02687 0.01799,-0.005 0.03183,-0.01807 0.04806,-0.02687 0.03401,-0.02193 0.06834,-0.04447 0.102835,-0.06563 0.0522,-0.03153 0.102746,-0.06545 0.152445,-0.10077 0.06667,-0.04805 0.132287,-0.09767 0.198954,-0.145727 0.04776,-0.03362 0.09686,-0.06527 0.148312,-0.09302 0.04947,-0.02835 0.09856,-0.05791 0.148312,-0.08578 0.02987,-0.01675 0.0592,-0.034 0.0894,-0.05013 0.02299,-0.01138 0.04536,-0.02395 0.06821,-0.03566 0.03523,-0.01839 0.07138,-0.03455 0.106971,-0.05219 0.04938,-0.02318 0.09908,-0.04585 0.148829,-0.06821 0.0418,-0.02008 0.08395,-0.03916 0.126605,-0.05736 0.03457,-0.01482 0.06821,-0.03224 0.10232,-0.04806 0.03266,-0.01566 0.06449,-0.03296 0.09715,-0.04857 0.02326,-0.01117 0.04685,-0.02167 0.07131,-0.02997 0.02604,-0.0084 0.05089,-0.02056 0.07855,-0.02326 0.03555,-0.0057 0.07121,-0.0098 0.106968,-0.01394 0.01831,-0.0024 0.03655,-0.0052 0.05478,-0.0083 -0.04771,-0.203207 0.106262,-0.452526 0.509013,-0.540018 0.08834,-0.01919 0.176329,-0.04109 0.263033,-0.06666 0.160116,-0.04843 0.31831,-0.102068 0.475941,-0.15813 0.154699,-0.05592 0.30776,-0.116252 0.463021,-0.170532 0.147312,-0.048 0.294637,-0.08385 0.449069,-0.09973 0.119237,-0.01433 0.238733,-0.02575 0.358116,-0.03876 0.05391,-0.0039 0.107781,-0.0061 0.161748,-0.0072 0.05397,-0.0011 0.107709,-0.0011 0.161748,0 0.116911,6.88e-4 0.234018,0.0022 0.350882,0.0057 0.108958,0.0039 0.218083,0.0097 0.326594,0.02067 0.129315,0.01218 0.258556,0.02259 0.387575,0.03772 0.155662,0.01633 0.310919,0.03574 0.466637,0.05168 0.176597,0.02064 0.353066,0.04166 0.530202,0.05736 0.17213,0.01632 0.343945,0.03531 0.514178,0.06615 0.164338,0.02686 0.328215,0.05647 0.489894,0.09663 0.173265,0.04475 0.344564,0.09711 0.514697,0.152446 0.205589,0.0699 0.409805,0.145473 0.605131,0.240813 0.01243,0.0062 0.02429,0.01343 0.03669,0.01964 -0.01371,-0.08765 -0.02674,-0.175398 -0.04393,-0.262516 -0.03553,-0.203553 -0.07021,-0.407535 -0.09405,-0.612883 -0.04167,-0.307054 -0.08176,-0.614377 -0.140044,-0.918807 -0.03957,-0.03154 -0.07867,-0.0569 -0.11834,-0.08992 -0.603065,-0.502314 -1.248979,-0.948004 -1.899108,-1.385962 -0.3879,-0.257065 -0.780677,-0.506285 -1.176155,-0.751375 -0.193839,-0.120206 -0.384196,-0.242353 -0.59273,-0.334863 -0.546087,-0.173689 -1.097307,-0.331706 -1.645894,-0.497127 -0.63083,-0.180726 -1.258392,-0.373532 -1.889291,-0.553972 -0.317569,-0.09939 -0.64008,-0.180043 -0.961697,-0.264583 -0.452104,-0.118284 -0.905233,-0.232507 -1.35754,-0.350366 -0.468749,-0.119399 -0.934284,-0.252492 -1.407666,-0.35295 -0.08793,-0.01827 -0.08861,-0.01655 -0.07906,-0.0124 z m -0.599448,0.315227 c -0.01786,0.0086 -0.03649,0.01551 -0.05426,0.02429 -0.02016,0.01753 0.01326,0.0037 0.01035,0.0067 -0.01495,0.01522 -0.0705,0.04707 -0.05064,0.03927 0.02513,-0.0099 0.04673,-0.02788 0.06718,-0.04548 0.01445,-0.01244 0.01561,-0.01445 0.02739,-0.02481 z m 7.777305,6.150529 c -0.08559,-7.94e-4 -0.171461,-0.0019 -0.256834,0.0052 -0.107016,0.01241 -0.214463,0.02215 -0.321426,0.03514 -0.06731,0.0098 -0.135155,0.01752 -0.201023,0.03514 -0.02241,0.006 -0.06818,0.02183 -0.08785,0.02842 -0.147548,0.05256 -0.293479,0.109477 -0.440799,0.162783 -0.171405,0.06108 -0.343633,0.119364 -0.5178,0.172082 -0.106905,0.03205 -0.215585,0.05898 -0.324527,0.0832 -0.223195,0.04962 -0.395611,0.02072 -0.514181,-0.04857 -0.01889,0.004 -0.03779,0.0078 -0.05684,0.01138 -0.0459,0.01003 -0.09243,0.01783 -0.139009,0.02376 -0.03249,0.0042 -0.06541,0.0066 -0.09767,0.01241 -0.01452,0.0024 -0.02363,0.0084 -0.03979,0.01394 -0.01487,0.0051 -0.02931,0.01114 -0.04341,0.0181 -0.0328,0.0158 -0.06485,0.03282 -0.09767,0.04857 -0.03672,0.01741 -0.07286,0.03582 -0.110069,0.05219 -0.03975,0.01696 -0.07942,0.03496 -0.11834,0.05374 -0.05041,0.02286 -0.100804,0.04518 -0.150895,0.06873 -0.03224,0.01627 -0.0652,0.03068 -0.09715,0.04754 -0.02445,0.01262 -0.04875,0.02601 -0.07338,0.03824 -0.02619,0.01471 -0.05183,0.02973 -0.07803,0.04444 -0.04905,0.02753 -0.09746,0.05624 -0.146245,0.08423 -0.0446,0.024 -0.0874,0.05183 -0.128673,0.08113 -0.06597,0.04768 -0.130876,0.09658 -0.196887,0.144177 -0.05497,0.03927 -0.11126,0.07651 -0.168984,0.11162 -0.03246,0.01998 -0.06461,0.04081 -0.09663,0.0615 -0.03123,0.02098 -0.064,0.03845 -0.09922,0.05167 -0.0024,0.0011 -0.0042,0.0021 -0.0067,0.0031 -0.02582,0.0098 0.0055,-0.0024 -0.02379,0.0083 -0.0013,5.29e-4 -0.0047,0.0019 -0.0067,0.0026 l 5.29e-4,5.29e-4 c -0.03121,0.01765 -0.06226,0.03557 -0.09405,0.05219 -0.0071,0.0035 -0.01408,0.0073 -0.02119,0.01085 -0.08573,0.04241 -0.153892,0.03339 -0.19327,0.0016 -7.93e-4,0.0035 -0.0026,0.0071 -0.0047,0.0098 l -0.0031,0.0041 c -0.003,0.0032 -0.0064,0.0054 -0.01035,0.0072 -0.0016,7.94e-4 -0.0036,0.0013 -0.0052,0.0021 -0.0066,0.0034 -0.01336,0.0039 -0.02066,0.0047 -0.0074,5.29e-4 -0.01431,0.0019 -0.0217,0.0011 -0.0024,-2.64e-4 -0.0049,-0.0011 -0.0072,-0.0016 -0.0067,-0.0016 -0.01334,-0.0032 -0.01963,-0.0062 -0.0043,-0.0021 -0.0053,-0.0028 -0.0093,-0.0052 -0.0028,-0.0019 -0.0056,-0.0041 -0.0083,-0.0062 -0.0041,0.0044 -0.0096,0.0065 -0.01498,0.0088 v 5.29e-4 c -0.003,0.0052 -0.0071,0.0091 -0.01188,0.01241 -7.93e-4,5.3e-4 -0.0019,0.0011 -0.0026,0.0016 -0.01254,0.0075 -0.0164,0.003 -0.01654,-0.0057 -7.94e-4,5.29e-4 -7.94e-4,5.29e-4 -0.0026,0.0021 -0.0021,0.0011 -0.0044,0.0024 -0.0067,0.0031 -0.0093,0.0032 -0.02048,0.0019 -0.02997,5.29e-4 -0.0082,-0.0019 -0.01955,-0.0035 -0.02635,-0.0088 -0.0024,-0.0019 -0.0041,-0.0041 -0.0062,-0.0062 -0.0013,-0.0021 -0.003,-0.0044 -0.0041,-0.0067 -7.94e-4,-0.0019 -0.0016,-0.0042 -0.0021,-0.0067 -0.0026,-0.0011 -0.0052,-0.0024 -0.0078,-0.0036 -0.0036,-0.0021 -0.0066,-0.0051 -0.0098,-0.0078 -0.0026,-0.0021 -0.0047,-0.0044 -0.0072,-0.0067 -0.0031,-0.0029 -0.0049,-0.0065 -0.0067,-0.01035 -5.3e-4,-0.0011 -5.3e-4,-0.0016 -5.3e-4,-0.0011 1.06e-4,2.6e-4 2.65e-4,0.0011 0,0.0011 l -5.29e-4,-5.29e-4 -0.0016,-0.0016 c -0.0024,-0.0021 -0.0051,-0.0043 -0.0078,-0.0062 -0.0042,-0.0028 -0.0084,-0.0049 -0.01344,-0.0062 -0.01037,-0.0026 -0.02069,-0.0054 -0.03101,-0.0083 -0.0096,-0.0024 -0.01902,-0.0057 -0.02842,-0.0088 -0.0108,-0.0033 -0.02138,-0.008 -0.03152,-0.01291 -0.0096,-0.0048 -0.01849,-0.01045 -0.02739,-0.01654 -0.0052,-0.0032 -0.01013,-0.0067 -0.01497,-0.01035 -0.0061,-0.0047 -0.01241,-0.0088 -0.0186,-0.01344 -0.0052,-0.004 -0.01032,-0.0082 -0.0155,-0.01241 -0.0074,0.01093 -0.0058,0.0227 0.02222,0.03669 -0.01908,-0.0086 -0.03772,-0.01767 -0.05736,-0.02479 -0.02679,-0.01077 -0.054,-0.02125 -0.0801,-0.03359 -0.02135,-0.01072 -0.04373,-0.01881 -0.06563,-0.02842 -0.02196,-0.01042 -0.04269,-0.02299 -0.06201,-0.03462 -0.0163,-0.0092 -0.0336,-0.0173 -0.05116,-0.02376 -0.01982,-0.0078 -0.04066,-0.01257 -0.06201,-0.01344 -0.03485,-0.0016 -0.06976,-0.0041 -0.10387,-0.01188 -0.04712,-0.01156 -0.09187,-0.02897 -0.132292,-0.05633 -0.03904,-0.02572 -0.07684,-0.05322 -0.114723,-0.08061 -0.01966,-0.01405 -0.03815,-0.02914 -0.05943,-0.04082 -0.01624,-0.01103 -0.03295,-0.02114 -0.04857,-0.03307 -0.01257,-0.0068 -0.02537,-0.01349 -0.03773,-0.02066 -0.0042,-0.0024 -0.0089,-0.004 -0.01241,-0.0072 -5.29e-4,-5.29e-4 0.0019,5.29e-4 0.0026,5.29e-4 0.08775,0.01119 0.09228,-0.02795 0.07338,-0.07803 -0.144758,0.05718 -0.269994,0.110453 -0.270785,0.157096 0.01934,0.0084 0.03869,0.0164 0.05788,0.02479 0.04133,0.0232 0.08526,0.04116 0.128675,0.05995 0.01876,0.0081 0.02103,0.0084 0.01241,0.0067 -0.144177,-0.0292 -0.199499,-0.05936 -0.198954,-0.09147 -0.02061,-0.0089 -0.04094,-0.01815 -0.06149,-0.02687 -0.04567,-0.01632 -0.09085,-0.03366 -0.13901,-0.04186 -0.112006,-0.02352 -0.224837,-0.04275 -0.337965,-0.05994 -0.155165,-0.02716 -0.309682,-0.05699 -0.464053,-0.08837 -0.166722,-0.03493 -0.334592,-0.06514 -0.501261,-0.100253 -0.121645,-0.02641 -0.242848,-0.05599 -0.366903,-0.06873 -0.101563,-0.0087 -0.203142,-0.0074 -0.304893,-0.0016 -0.233113,0.0089 -0.46641,0.01855 -0.699698,0.02326 -0.216265,0.0028 -0.43238,0.0026 -0.648539,0.0011 -0.05473,0.145884 -0.107106,0.292817 -0.16433,0.437698 -0.123613,0.286597 -0.241604,0.575625 -0.390157,0.850596 -0.08,0.148074 -0.133768,0.230137 -0.21911,0.366384 -0.15989,0.256307 -0.347649,0.490704 -0.559654,0.7059 -0.108453,0.110088 -0.204126,0.184164 -0.322461,0.282155 -0.262358,0.215482 -0.570225,0.359145 -0.859896,0.531233 0.12292,-0.06201 0.032,-0.02037 0.02585,-0.0011 -0.0024,0.008 0.02177,-0.0182 0.02273,-0.0098 8e-5,7.93e-4 -0.0566,0.08117 -0.05736,0.08217 -0.03566,0.04879 -0.07202,0.09718 -0.108003,0.145727 -0.243777,0.342651 -0.483658,0.688057 -0.727088,1.030946 -0.0026,0.186714 -0.0031,0.37333 0.0036,0.560174 0.01524,0.420647 0.03564,0.544917 0.0801,0.962731 0.02043,0.160957 0.04414,0.321289 0.06873,0.481624 0.152945,-0.0044 0.282665,-0.08031 0.283702,-0.3545 2e-6,-7.93e-4 -5.29e-4,-0.0026 0,-0.0021 0.0186,0.01482 0.03467,0.03247 0.05168,0.04909 0.03603,0.03521 0.05487,0.05317 0.08992,0.09663 0.02141,0.02657 0.04071,0.05473 0.06098,0.08217 0.0829,0.123936 0.155482,0.254252 0.234092,0.380855 0.06767,0.115131 0.153295,0.217082 0.240814,0.317293 0.10741,0.121119 0.216889,0.239951 0.329694,0.356053 0.144677,0.139004 0.29699,0.27024 0.445453,0.405143 0.119766,0.110604 0.242263,0.217728 0.361733,0.32866 0.102214,0.09469 0.204769,0.189362 0.303858,0.287322 0.09836,0.108209 0.208468,0.202885 0.321945,0.294555 0.119126,0.09329 0.239948,0.184573 0.364318,0.270785 0.06316,0.04051 0.12846,0.07758 0.194821,0.112655 0.07414,0.03282 0.142491,0.07665 0.210838,0.119888 0.08447,0.05854 0.172434,0.120959 0.232545,0.206189 0.01648,0.02336 0.02962,0.0485 0.04444,0.07286 0.0013,0.0011 0.0024,0.0016 0.0036,0.0026 2.64e-4,0.0011 7.94e-4,0.0021 0.0011,0.0031 0.0019,0.0054 0.0044,0.01048 0.0072,0.0155 0.0034,0.0061 0.0082,0.01132 0.01291,0.01654 0.0064,0.0069 0.01252,0.014 0.0186,0.02119 0.0016,0.0019 0.0035,0.0033 0.0052,0.0052 0.0011,-0.0042 0.0036,-0.0067 0.0067,-0.0072 7.94e-4,-1.27e-4 0.0013,0.0019 0.0021,0.0021 0.0013,-0.0026 0.0034,-0.0042 0.0057,-0.0047 0.0051,-0.0011 0.01106,0.0034 0.01291,0.01344 7.94e-4,0.0043 0.0013,0.0085 0.0016,0.01291 2.46e-4,0.0035 5.29e-4,0.0074 5.29e-4,0.01085 6.4e-5,0.0028 -1.3e-5,0.0051 0,0.0078 1.1e-5,0.0024 -2e-6,0.0053 0,0.0078 v 0.0011 c 0,0.0019 -7.6e-5,0.003 -5.29e-4,0.0047 v 0.0021 c 5.29e-4,0.0021 0.0011,0.0036 0.0016,0.0057 7.94e-4,0.003 7.94e-4,0.0063 0.0011,0.0093 1.27e-4,0.0024 -2.9e-5,0.0048 0,0.0072 8e-6,0.0019 -2.17e-4,0.0038 0,0.0057 2.33e-4,0.0016 5.29e-4,0.0034 0.0011,0.0052 2.65e-4,0.0013 0.0026,0.0011 0.0031,0.0026 0.0048,0.01892 -0.01365,0.02379 -0.01963,0.0078 -0.0046,0.0024 -0.0082,0.0077 -0.01344,0.0062 0.01087,0.06029 0.0081,0.123145 -0.03307,0.208256 -0.04105,0.08486 -0.113771,0.154252 -0.190685,0.208772 -0.09293,0.06587 -0.220612,0.05886 -0.326596,0.04754 -0.01984,-0.0035 -0.03961,-0.0072 -0.05943,-0.01085 -0.220414,-0.03977 -0.245518,-0.118642 -0.183968,-0.212389 -0.0421,-0.02662 -0.08412,-0.05271 -0.130741,-0.07235 -0.09476,-0.05071 -0.188677,-0.102937 -0.278019,-0.162783 -0.140695,-0.0979 -0.277773,-0.201374 -0.412379,-0.307475 -0.134914,-0.109146 -0.266531,-0.222512 -0.384472,-0.350364 -0.09262,-0.09209 -0.189222,-0.179675 -0.284739,-0.268718 -0.116925,-0.109011 -0.237776,-0.213794 -0.355015,-0.322461 -0.161076,-0.146484 -0.326671,-0.288274 -0.482143,-0.440799 -0.123203,-0.126889 -0.242932,-0.256714 -0.360185,-0.389125 -0.06361,-0.07323 -0.125674,-0.147958 -0.183967,-0.225309 0.05241,0.281173 0.105613,0.562346 0.161231,0.842844 0.01397,0.07047 0.02788,0.140885 0.04186,0.211354 0.450474,2.270792 -1.843448,2.726108 -2.293917,0.455271 -0.014,-0.07055 -0.02786,-0.141324 -0.04186,-0.211873 -0.02421,-0.122084 -0.04797,-0.24421 -0.07183,-0.366387 v 2.235007 h 20.04994 v -7.0559 c -0.0226,0.04795 -0.04638,0.09535 -0.06718,0.144176 -0.03254,0.08357 -0.06898,0.165286 -0.106969,0.246497 -0.04403,0.09122 -0.09381,0.179041 -0.146245,0.265618 -0.06358,0.10178 -0.123614,0.206346 -0.183968,0.310057 -0.08615,0.144164 -0.170809,0.288629 -0.257349,0.432533 -0.07208,0.120015 -0.133917,0.246301 -0.190686,0.374137 -0.03878,0.08419 -0.06219,0.173476 -0.0863,0.262517 -0.02302,0.09132 -0.05978,0.177786 -0.09302,0.265617 -0.03059,0.07674 -0.07012,0.149696 -0.106455,0.223759 -0.05562,0.108653 -0.120192,0.212238 -0.183967,0.316259 -0.0793,0.133265 -0.159917,0.266168 -0.243396,0.396875 -0.0654,0.106492 -0.134834,0.210357 -0.208772,0.311091 -0.05761,0.08482 -0.12405,0.162746 -0.193789,0.237713 -0.06797,0.06501 -0.129759,0.135972 -0.192751,0.205671 -0.01344,0.015 -0.02726,0.02964 -0.04031,0.04496 -0.06093,0.0715 -0.117264,0.146582 -0.178282,0.218075 -0.09384,0.109939 -0.108625,0.123843 -0.209291,0.23151 -0.21178,0.221009 -0.451125,0.41261 -0.697116,0.593762 -0.129818,0.09361 -0.256021,0.192236 -0.388088,0.28267 -0.08592,0.05898 -0.172675,0.116586 -0.256315,0.178801 -0.06672,0.05321 -0.135581,0.102729 -0.209291,0.145729 -0.316217,0.184476 -0.576673,0.131988 -0.703315,-0.01394 -0.0016,0.0072 -0.0057,0.01445 -0.01085,0.0217 -0.005,0.0053 -0.0091,0.01138 -0.01344,0.01706 -0.0071,0.0084 -0.01363,0.01625 -0.02222,0.02326 -0.0069,0.0055 -0.014,0.01016 -0.0217,0.01447 -0.0083,0.0045 -0.01762,0.008 -0.02635,0.01138 -0.0068,0.0024 -0.01143,0.0057 -0.0181,0.0093 -0.0097,0.0069 -0.02088,0.01122 -0.03204,0.01498 -0.0096,0.003 -0.01945,0.0047 -0.02946,0.0057 -0.01119,0.0011 -0.01812,-0.0031 -0.02635,-0.0052 0.0011,0.0033 0.0024,0.007 0.0031,0.01035 1.27e-4,0.0011 -1.3e-4,0.0021 0,0.0031 0.0034,0.02774 -0.02217,0.03329 -0.02894,0.01085 -0.0024,0.0037 -0.0053,0.0044 -0.0083,0.0052 v 0.01291 c 0,0.03069 -0.03152,0.03069 -0.03152,0 v -0.01344 -0.01085 -0.0093 -0.0093 -0.0093 -0.0062 -0.0057 c 0,-0.0081 0.0026,-0.01416 0.0057,-0.0181 -2.31e-4,-0.0019 -0.0011,-0.0038 -0.0016,-0.0057 -0.0033,-0.01497 0.0028,-0.02416 0.01035,-0.02585 0.0032,-7.93e-4 0.0066,-2.38e-4 0.0098,0.0021 h 5.3e-4 c 2.19e-4,-0.0016 1.58e-4,-0.0034 5.29e-4,-0.0052 0.0013,-0.01339 0.0078,-0.02106 0.01447,-0.02273 0.0087,-0.0021 0.01768,0.0055 0.01654,0.02273 -1.72e-4,0.0027 -0.0019,0.0056 -0.0021,0.0083 0.0088,-0.0047 0.01622,-0.01019 0.02997,-0.01138 0.0039,-5.3e-4 0.0076,-7.94e-4 0.01138,-0.0016 0.0067,-0.0016 0.0127,-0.006 0.0186,-0.0093 0.0035,-0.0019 0.0073,-0.0038 0.01085,-0.0057 0.0021,-0.0052 0.006,-0.0104 0.01241,-0.0155 0.0038,-0.003 0.0044,-0.0045 0.0062,-0.0093 0.0036,-0.0078 0.007,-0.01561 0.0098,-0.02376 0.0016,-0.0034 0.0037,-0.0062 0.0057,-0.0093 -7.93e-4,-0.0013 -0.0024,-0.0024 -0.0031,-0.0036 -0.0057,-0.01204 -0.0084,-0.01736 -0.01241,-0.03049 -0.0072,-0.02365 -0.0084,-0.04832 -0.0083,-0.07286 7.93e-4,-0.03697 0.0013,-0.07415 0.0026,-0.111104 0.0013,-0.03834 0.0199,-0.0586 0.03927,-0.06098 0.0062,-7.94e-4 0.01233,2.27e-4 0.0181,0.0031 0.03524,-0.138086 0.1486,-0.282572 0.366384,-0.391189 0.04519,-0.02252 0.08212,-0.06259 0.124542,-0.08992 0.09271,-0.06848 0.187428,-0.133543 0.28267,-0.19844 0.124423,-0.08388 0.241234,-0.178575 0.363803,-0.265099 0.205486,-0.150683 0.405296,-0.310121 0.582908,-0.493509 0.08195,-0.08714 0.09979,-0.10342 0.176218,-0.192754 0.08203,-0.09587 0.156345,-0.198041 0.241845,-0.290939 0.06662,-0.07355 0.1318,-0.148391 0.203605,-0.21704 0.04817,-0.04999 0.09186,-0.10423 0.130741,-0.161748 0.06348,-0.08584 0.121695,-0.175305 0.177768,-0.266134 0.08085,-0.126452 0.158248,-0.255037 0.235128,-0.383955 0.05044,-0.08207 0.101848,-0.1636 0.147277,-0.248563 0.02511,-0.05081 0.05058,-0.101055 0.07441,-0.152445 0.02381,-0.06244 0.05068,-0.124367 0.0677,-0.189137 0.03544,-0.130146 0.07285,-0.259337 0.129191,-0.382405 0.07092,-0.158329 0.147486,-0.314878 0.237193,-0.463537 0.08454,-0.140417 0.166971,-0.281556 0.251151,-0.422198 0.01349,-0.02315 0.02735,-0.0456 0.04082,-0.06873 -0.0131,-0.01799 -0.02516,-0.03361 -0.04031,-0.05891 -0.08281,-0.138153 -0.132244,-0.291823 -0.140044,-0.453203 -0.003,-0.06095 0.0043,-0.121941 0.0062,-0.182932 0.01021,-0.05523 0.01818,-0.111205 0.031,-0.165884 0.06933,-0.295275 0.20733,-0.568618 0.332282,-0.84284 0.178898,-0.398161 0.355838,-0.801407 0.450617,-1.229384 0.0092,-0.05057 0.01958,-0.101119 0.02739,-0.151929 0.02648,-0.172331 0.02738,-0.348068 0.03152,-0.521931 -0.0011,-0.04278 -0.0024,-0.0854 -0.0036,-0.128158 -0.01342,-0.0082 -0.02633,-0.0172 -0.03979,-0.02532 -0.148164,-0.08977 -0.301535,-0.170868 -0.456819,-0.247531 -0.162822,-0.07867 -0.333195,-0.140623 -0.504362,-0.198438 -0.150524,-0.04818 -0.301024,-0.09589 -0.454234,-0.134874 -0.137787,-0.03366 -0.277603,-0.05843 -0.417547,-0.08113 -0.152024,-0.02803 -0.305628,-0.04486 -0.459404,-0.05943 -0.183107,-0.0163 -0.365715,-0.03759 -0.548285,-0.05891 -0.152355,-0.01537 -0.304001,-0.03537 -0.456303,-0.05116 -0.126246,-0.01482 -0.25277,-0.02479 -0.379307,-0.03669 -0.09255,-0.0095 -0.185587,-0.01426 -0.278535,-0.01757 -0.108712,-0.003 -0.217344,-0.003 -0.326078,-0.0036 z m -5.372799,1.440222 h 5.3e-4 c 0.0041,0.0019 0.0081,0.0038 0.01291,0.0057 -0.01206,-5.3e-4 -0.03673,0.0019 -0.01344,-0.0057 z m -4.409035,8.561234 c 0.02402,0.02059 0.04773,0.04109 0.0739,0.05891 0.01857,0.0109 0.03788,0.02082 0.05684,0.03101 0.01103,0.0059 0.02098,0.01212 0.02997,0.0186 0.04389,-0.06294 0.0071,-0.102774 -0.160713,-0.108519 z m -0.24081,0.0646 c -0.06095,0.05072 -0.119372,0.109088 -0.151413,0.180867 -0.06541,0.14655 -0.02601,0.209923 0.01654,0.328147 2.12e-4,2.62e-4 5.8e-5,7.94e-4 5.29e-4,0.0011 0.0788,-0.103092 0.243303,-0.217802 0.375169,-0.320394 -0.01466,-0.0081 -0.02934,-0.01625 -0.04341,-0.02532 -0.03226,-0.02238 -0.06241,-0.04704 -0.09198,-0.07286 -0.0352,-0.03027 -0.07039,-0.06088 -0.105418,-0.09147 z m -0.09715,0.563791 c 0.0043,0.0049 0.0087,0.0094 0.01344,0.01394 0.0011,0.0013 0.005,0.004 0.0041,0.0026 -0.0041,-0.0067 -0.01066,-0.01185 -0.01757,-0.01654 z" />
    </clipPath>
    <clipPath
       clipPathUnits="userSpaceOnUse"
       id="clipPath12">
      <path
         id="path13"
         style="fill:#ff0000;fill-opacity:1;fill-rule:nonzero;stroke:none;stroke-width:0.264583"
         d="m 77.055763,38.715466 v 21.426082 c 0.0052,2.04e-4 0.01048,5.3e-4 0.01551,0.0016 0.0011,2.65e-4 0.0021,7.94e-4 0.0031,0.0011 0.0019,-10e-6 0.0034,-10e-6 0.0052,0 0.0027,4e-5 0.0056,2.41e-4 0.0083,0 0.0024,-2.48e-4 0.0044,-5.29e-4 0.0067,-0.0011 0.0019,-5.29e-4 0.0043,-9.3e-5 0.0062,-5.29e-4 0.0011,-1.56e-4 0.0021,-7.94e-4 0.0031,-0.0011 5.29e-4,-1.82e-4 0.0011,-5.29e-4 0.0016,-5.29e-4 0.0069,-0.0011 0.0094,0.0047 0.0052,0.0083 h 0.205671 V 38.715439 Z" />
    </clipPath>
  </defs>
  <g
     inkscape:label="Reuleaux"
     inkscape:groupmode="layer"
     id="layer1"
     style="stroke:#09396c;stroke-opacity:1;fill:none;fill-opacity:1">
    <g
       id="g321"
       transform="matrix(3.2113961,0,0,3.1212048,-80.558346,-54.347124)"
       style="stroke:none;stroke-opacity:1;fill:none;fill-opacity:1">
      <circle
         style="fill:none;stroke:none;stroke-width:0.0499999;stroke-opacity:1;paint-order:stroke fill markers;fill-opacity:1"
         id="path1"
         cx="34.819061"
         cy="36.496029"
         r="10"
         clip-path="url(#clipPath303)" />
      <circle
         style="fill:none;stroke:none;stroke-width:0.0499999;stroke-opacity:1;paint-order:stroke fill markers;fill-opacity:1"
         id="path1-8"
         cx="45.908451"
         cy="36.261879"
         r="10"
         clip-path="url(#clipPath317)" />
      <circle
         style="fill:none;stroke:none;stroke-width:0.0499999;stroke-opacity:1;paint-order:stroke fill markers;fill-opacity:1"
         id="path1-3"
         cx="40.022514"
         cy="27.707912"
         r="10"
         clip-path="url(#clipPath320)" />
    </g>
    <path
       style="fill:#09396c;fill-opacity:1;stroke:#09396c;stroke-width:0.0176777;stroke-opacity:1;paint-order:stroke fill markers"
       d="m 45.982257,63.270439 c -3.628924,-0.313434 -6.796979,-1.017837 -9.742392,-2.166185 l -1.282032,-0.499834 -0.06292,-0.655146 c -0.07064,-0.736238 -0.0012,-2.706182 0.14509,-4.115247 0.896796,-8.637039 5.637762,-16.67128 12.903161,-21.866247 l 0.68754,-0.491608 0.948695,0.647519 c 3.715424,2.535927 7.060004,6.092078 9.362922,9.955196 2.614248,4.38537 4.001358,9.117739 4.272764,14.577283 l 0.04926,0.991054 -1.150717,0.533128 c -3.46354,1.604655 -6.691137,2.513934 -10.471163,2.94994 -1.142632,0.131834 -4.728865,0.220592 -5.660243,0.140146 z"
       id="path337" />
  </g>
  <g
     inkscape:groupmode="layer"
     id="layer2"
     inkscape:label="Rocket">
    <path
       style="fill:none;stroke:#e500f3;stroke-width:0.0499999;paint-order:stroke fill markers"
       d="m 75.527797,30.47065 c 0.497048,0.972397 0.994084,1.944773 1.289238,3.327059 0.295154,1.382287 0.388399,3.174372 0.481647,4.966492"
       id="path4"
       inkscape:path-effect="#path-effect5"
       inkscape:original-d="m 75.527797,30.47065 c 0.497048,0.972397 0.994084,1.944773 1.491142,2.917189 0.09325,1.792157 0.186495,3.584242 0.279743,5.376362"
       sodipodi:nodetypes="ccc" />
    <path
       style="fill:none;stroke:#e500f3;stroke-width:0.0499999;paint-order:stroke fill markers"
       d="M 77.291006,38.715661 C 77.220847,45.86011 77.150689,53.004558 77.08053,60.149006"
       id="path5"
       inkscape:original-d="M 77.291006,38.715661 C 77.220846,45.86011 77.150689,53.004558 77.08053,60.149006"
       inkscape:path-effect="#path-effect6"
       clip-path="url(#clipPath12)" />
    <path
       style="fill:none;stroke:#e500f3;stroke-width:0.0499999;paint-order:stroke fill markers"
       d="m 75.505468,30.526302 -0.396875,29.60026 1.960783,-0.0085"
       id="path6"
       sodipodi:nodetypes="ccc" />
  </g>
</svg>
